<svg xmlns="http://www.w3.org/2000/svg" xmlns:xlink="http://www.w3.org/1999/xlink" xmlns:lucid="lucid" width="1229.5" height="1322"><g transform="translate(961 661)" lucid:page-tab-id="0_0"><path d="M-1000-1000H500v2000h-1500z" fill="#fff"/><path d="M-940-374a6 6 0 0 1 6-6h838a6 6 0 0 1 6 6V634a6 6 0 0 1-6 6h-838a6 6 0 0 1-6-6z" stroke="#282c33" stroke-width="2" fill="url(#a)"/><path d="M-900-134a6 6 0 0 1 6-6h508a6 6 0 0 1 6 6v708a6 6 0 0 1-6 6h-508a6 6 0 0 1-6-6z" stroke="#282c33" stroke-width="2" fill="url(#b)"/><path d="M-900-334a6 6 0 0 1 6-6h328a6 6 0 0 1 6 6v148a6 6 0 0 1-6 6h-328a6 6 0 0 1-6-6z" stroke="#282c33" stroke-width="2" fill="#ffbd52"/><use xlink:href="#c" transform="matrix(1,0,0,1,-895,-335) translate(79.29012345679013 78.71527777777777)"/><use xlink:href="#d" transform="matrix(1,0,0,1,-895,-335) translate(165.64814814814815 78.71527777777777)"/><path d="M-840 306a6 6 0 0 1 6-6h168a6 6 0 0 1 6 6v168a6 6 0 0 1-6 6h-168a6 6 0 0 1-6-6z" stroke="#282c33" stroke-width="2" fill="#ffe342"/><path d="M-494.17 449.94c3.9-3.67 7.65-7.34 11.55-11.06 1.2-1.27 2.72-2.58 3.9-3.9-1-1.45-2.7-2.54-4.24-3.13-2.9-1.27-5.77-.86-8.5.9-3.56 2.32-5.1 6-5.1 10.57.18 1.8.52 3.54 1.37 5.08l1.03 1.54m4.42 3.5c1.87.7 4.07.62 5.94.2 1-.44 3.56-1.66 4.4-1.48h.18l.17.1c.5.3 1.02.72 1.36 1.4.7 1.5.35 3-1 3.85l-.35.32c-4.93 3.18-10.2 2.72-14.95-.22-2.38-1.4-4.08-3.54-5.44-6.08l-.34-.58c-3.05-6.12-2.7-12.5.85-18.32 1.2-2 2.72-3.58 4.6-4.75l.84-.46c4.6-2.98 9.52-2.8 14.28-.17 2.38 1.4 4.6 3.5 5.95 6.26l.17.48c1.2 2-.17 3.77-1.53 4.94-1.7 1.4-3.23 3.1-4.76 4.54-3.56 3.3-6.96 6.66-10.35 9.97zm36.7-27.75h.5c1.53 0 2.55 1.17 2.55 2.9 0 2.4-2.04 2.98-3.74 2.98-2.38 0-4.58 1.6-6.1 3.36-2.05 2.17-2.9 4.98-2.9 8.1v13.97c0 1.64-.85 2.9-2.38 2.9h-.5c-1.37 0-2.4-1.26-2.4-2.9v-14.77c0-5.66 2.56-10.33 6.64-13.55 2.55-1.95 5.26-3 8.32-3zm-64.22 9.92c2.03-2.23 3.9-4.5 5.94-6.7.68-.6 2.72-3.23 3.57-3.23h1.02v.04c1.2.27 2.04 1.08 2.04 2.5v.58c0 .95-.85 2.08-1.53 2.76-1.2 1.4-2.38 2.77-3.57 4.13l-6.3 7.08c2.73 3.03 5.45 6.03 8 9.06.85.86 1.53 1.72 2.2 2.54.35.32.7.68.86 1.13.34.38.34.83.34 1.28v.77c-.17 1.32-1.02 2.36-2.2 2.36h-.52c-.85 0-1.87-1.08-2.38-1.67-1.2-1.27-2.38-2.63-3.57-3.94l-3.9-4.36v6.98c0 1.58-.85 2.9-2.38 2.9h-.34c-1.52 0-2.37-1.32-2.37-2.9v-39.25c0-1.6.85-2.86 2.38-2.86h.35c1.53 0 2.38 1.28 2.38 2.87v17.95zm-16.82-3.9c-.67-.4-2.2-.55-3.05-.6-4.25-.17-7.3 2.55-9.17 6.8-.68 1.46-.85 3.04-.85 4.68 0 4.94 2.2 8.38 6.1 10.5 1.54.78 3.4.92 4.94.92 1.36 0 3.4-.95 4.6-1.6l.15-.13h1.02v.04c1.2.27 2.2 1.1 2.2 2.5v.58c0 3.54-5.76 4.3-7.97 4.5-7.82.58-13.6-4.18-15.8-12.43-.34-1.4-.5-2.87-.5-4.36V442c0-6.25 2.88-11.23 7.63-14.4 2.2-1.5 4.6-2.27 7.3-2.27h1.03c2.72 0 5.26.9 7.47 2.63l.17.13.17.22c.17.45.5 1 .5 1.54v.54c0 1.5-1 2.27-2.2 2.54l-.16.05h-.35c-.67-.06-2.37-.92-3.22-1.28zm-46.88 10.97c0 4.38 1.87 7.6 5.27 9.9 1.52 1.05 3.2 1.55 5.08 1.55 3.74 0 6.63-2.22 8.67-5.9 1.02-1.7 1.36-3.66 1.36-5.65 0-4.13-1.7-7.2-4.75-9.48-1.7-1.27-3.4-1.86-5.44-1.86-4.24 0-7.46 2.45-9.33 6.76-.5 1.5-.85 3.04-.85 4.67zm9.68-17.24h.68c5.95 0 10.53 3.27 13.42 9.1 1.2 2.32 1.7 4.86 1.7 7.54v1.18c0 6.25-2.72 11.24-7.47 14.4-2.2 1.46-4.76 2.23-7.3 2.23h-1.03c-5.6 0-10.02-3.07-12.9-8.47-1.2-2.5-1.88-5.25-1.88-8.15v-1.18c0-6.26 2.72-11.2 7.48-14.42 2.2-1.5 4.75-2.22 7.3-2.22zm-43.5 17.23c0 4.52 2.05 7.92 5.62 10.1 1.36.85 2.9 1.35 4.58 1.35 3.9 0 6.8-2.08 8.84-5.84 1.02-1.76 1.36-3.67 1.36-5.7 0-3.95-1.53-6.98-4.42-9.3-1.7-1.36-3.57-2.04-5.77-2.04-4.24 0-7.3 2.45-9.17 6.76-.68 1.5-1.02 3.04-1.02 4.67zm20.4-12.93v-12.2c0-1.63 1.02-2.9 2.38-2.9h.5c1.53 0 2.38 1.27 2.38 2.9v25.7c0 6.26-2.7 11.25-7.64 14.42-2.2 1.44-4.6 2.2-7.3 2.2h-1.02c-5.6 0-10.03-3.07-12.75-8.47-1.36-2.5-2.03-5.25-2.03-8.15v-1.18c0-6.26 2.7-11.24 7.64-14.42 2.2-1.5 4.6-2.22 7.14-2.22h1c3.92 0 7.15 1.64 9.7 4.3zM-522 334.14h15.34v17.4h7.6c3.56 0 7.28-.66 10.55-1.96 1.63-.64 3.56-1.5 5.2-2.6-2.23-3.12-3.27-7.12-3.57-11-.45-5.4.44-12.32 3.72-16.43l1.63-2.05 1.8 1.62c4.9 4.32 8.92 10.37 9.5 17.28 5.82-1.94 12.66-1.4 17.72 1.84l2.08 1.4-1.04 2.38c-4.3 9.4-13.4 12.32-22.17 11.78-13.1 36.83-41.8 54.22-76.48 54.22-18.02 0-34.54-7.56-43.9-25.38l-.16-.33-1.34-3.12c-3.12-7.88-4.16-16.42-3.57-25.06l.3-2.6h12.94v-17.38h15.18v-17.07h30.5V300h18.16v34.14z" stroke="#000" stroke-opacity="0" fill="#394d54"/><path d="M-472.63 340.57c1-8.88-5-15.84-8.58-19.2-4.3 5.54-5 19.87 1.7 26-3.7 3.68-11.57 7.03-19.57 7.03h-97.47c-.72 9.38.7 18.02 4.14 25.4l1 2.25c.72 1.34 1.57 2.6 2.43 3.86 4 .34 7.58.43 11 .34 6.72-.17 12-1.1 16.15-2.68.58-.17 1.3.17 1.58.84.14.67-.15 1.42-.72 1.68-.57.25-1.14.4-1.7.58-3.3 1-6.73 1.76-11.3 2.1h-.3c-.13 0-.27 0-.42.08-1.7.1-3.7.1-5.57.1-2.14 0-4.3 0-6.58-.18l-.14.08c8.15 10.23 20.87 16.34 36.73 16.34 33.73 0 62.3-16.76 74.9-54.3 9 1 17.7-1.6 21.57-10.14-6.3-4.1-14.3-2.77-18.87-.17z" stroke="#000" stroke-opacity="0" fill="#00aada"/><path d="M-472.66 340.55c.95-8.87-5-15.86-8.55-19.17-4.28 5.48-5 19.9 1.65 25.94-3.67 3.75-11.5 7.06-19.46 7.06h-91.74c-.35 14.34 4.4 25.3 12.82 31.85 6.65-.14 12-1.08 16.14-2.66.6-.22 1.3.14 1.42.86.24.65 0 1.37-.7 1.66-.48.2-1.08.35-1.67.57-3.2 1-7 1.8-11.5 2.16l-.13-.15c11.5 6.63 28.12 6.56 47.23-1.65 21.36-9.15 41.18-26.74 55.06-46.77-.24.07-.36.22-.6.3z" stroke="#000" stroke-opacity="0" fill="#24b8eb"/><path d="M-596.3 365.77c.57 5 1.95 9.74 3.9 14.03l1.03 2.25c.7 1.34 1.5 2.64 2.3 3.86 4 .32 7.78.4 11.1.32 6.65-.16 12.04-1.02 16.16-2.64.57-.23 1.25.12 1.48.83.23.68-.1 1.43-.68 1.67-.58.23-1.15.43-1.72.6-3.2 1.05-7 1.76-11.46 2.07-.12.04-.46.04-.58.04-1.7.12-3.66.16-5.6.16-2.07 0-4.25-.04-6.66-.16 8.14 10.25 20.97 16.4 36.9 16.4 28.77 0 53.86-12.3 68.42-39.4h-114.6z" stroke="#000" stroke-opacity="0" fill="#008bb8"/><path d="M-589.84 365.78c1.72 8.8 5.9 15.73 11.9 20.44 6.58-.14 12-1.03 16.1-2.64.66-.22 1.33.14 1.52.8.2.7-.1 1.45-.66 1.7-.58.2-1.15.4-1.72.58-3.24 1.05-7.14 1.8-11.62 2.1 11.53 6.6 28.1 6.48 47.14-1.7 11.52-4.97 22.56-12.37 32.56-21.28h-95.22z" stroke="#000" stroke-opacity="0" fill="#039bc6"/><path d="M-572.22 338.18h1.05v12.33h-1.05V338.2zm-2 0h1.08v12.33h-1.08V338.2zm-2 0h1.1v12.33h-1.1V338.2zm-2 0h1.1v12.33h-1.1V338.2zm-2 0h1.1v12.33h-1.1V338.2zm-1.94 0h1.04v12.33h-1.04V338.2zm-1.1-1.23h13.18v14.8h-13.18v-14.8zM-557 321.12h1.03v12.33H-557v-12.33zm-2 0h1.07v12.33H-559v-12.33zm-2 0h1.08v12.33H-561v-12.33zm-2 0h1.07v12.33H-563v-12.33zm-2 0h1.08v12.33H-565v-12.33zm-1.96 0h1.04v12.33h-1.04v-12.33zm-1.1-1.23h13.18v14.78h-13.17v-14.8z" stroke="#000" stroke-opacity="0" fill="#00acd3"/><path d="M-557 338.18h1.03v12.33H-557V338.2zm-2 0h1.07v12.33H-559V338.2zm-2 0h1.08v12.33H-561V338.2zm-2 0h1.07v12.33H-563V338.2zm-2 0h1.08v12.33H-565V338.2zm-1.96 0h1.04v12.33h-1.04V338.2zm-1.1-1.23h13.18v14.8h-13.17v-14.8z" stroke="#000" stroke-opacity="0" fill="#20c2ef"/><path d="M-541.8 338.18h1.03v12.33h-1.04V338.2zm-2 0h1.07v12.33h-1.08V338.2zm-2 0h1.08v12.33h-1.08V338.2zm-2 0h1.08v12.33h-1.08V338.2zm-2 0h1.1v12.33h-1.1V338.2zm-1.96 0h1.04v12.33h-1.04V338.2zm-1.1-1.23h13.2v14.8h-13.2v-14.8z" stroke="#000" stroke-opacity="0" fill="#00acd3"/><path d="M-541.8 321.12h1.03v12.33h-1.04v-12.33zm-2 0h1.07v12.33h-1.08v-12.33zm-2 0h1.08v12.33h-1.08v-12.33zm-2 0h1.08v12.33h-1.08v-12.33zm-2 0h1.1v12.33h-1.1v-12.33zm-1.96 0h1.04v12.33h-1.04v-12.33zm-1.1-1.23h13.2v14.78h-13.2v-14.8zM-526.6 338.18h1.04v12.33h-1.05V338.2zm-2 0h1.07v12.33h-1.08V338.2zm-2 0h1.08v12.33h-1.08V338.2zm-2 0h1.08v12.33h-1.08V338.2zm-2 0h1.1v12.33h-1.1V338.2zm-1.95 0h1.04v12.33h-1.05V338.2zm-1.1-1.23h13.18v14.8h-13.18v-14.8z" stroke="#000" stroke-opacity="0" fill="#20c2ef"/><path d="M-526.6 321.12h1.04v12.33h-1.05v-12.33zm-2 0h1.07v12.33h-1.08v-12.33zm-2 0h1.08v12.33h-1.08v-12.33zm-2 0h1.08v12.33h-1.08v-12.33zm-2 0h1.1v12.33h-1.1v-12.33zm-1.95 0h1.04v12.33h-1.05v-12.33zm-1.1-1.23h13.18v14.78h-13.18v-14.8z" stroke="#000" stroke-opacity="0" fill="#00acd3"/><path d="M-526.6 304.07h1.04v12.33h-1.05v-12.33zm-2 0h1.07v12.33h-1.08v-12.33zm-2 0h1.08v12.33h-1.08v-12.33zm-2 0h1.08v12.33h-1.08v-12.33zm-2 0h1.1v12.33h-1.1v-12.33zm-1.95 0h1.04v12.33h-1.05v-12.33zm-1.1-1.23h13.18v14.8h-13.18v-14.8z" stroke="#000" stroke-opacity="0" fill="#20c2ef"/><path d="M-511.4 338.18h1.04v12.33h-1.04V338.2zm-2 0h1.08v12.33h-1.08V338.2zm-2 0h1.1v12.33h-1.1V338.2zm-2 0h1.08v12.33h-1.08V338.2zm-2 0h1.1v12.33h-1.1V338.2zm-1.95 0h1.04v12.33h-1.05V338.2zm-1.1-1.23h13.2v14.8h-13.2v-14.8z" stroke="#000" stroke-opacity="0" fill="#00acd3"/><path d="M-555.7 375.7c2 0 3.63 1.83 3.63 4.08s-1.63 4.08-3.63 4.08-3.64-1.83-3.64-4.08 1.63-4.08 3.64-4.08" stroke="#000" stroke-opacity="0" fill="#d4edf1"/><path d="M-555.7 376.86c.33 0 .65.07.94.2-.32.2-.53.6-.53 1.03 0 .65.48 1.18 1.07 1.18.4 0 .76-.25.93-.62.13.34.2.72.2 1.12 0 1.6-1.16 2.92-2.6 2.92-1.44 0-2.6-1.3-2.6-2.92 0-1.6 1.16-2.92 2.6-2.92M-620 367.25H-450.9c-3.72-1.05-11.67-2.47-10.3-7.88-6.78 8.7-22.84 6.1-26.9 1.8-4.57 7.4-30.95 4.6-32.8-1.16-5.75 7.5-23.34 7.5-29.1 0-1.85 5.76-28.23 8.57-32.8 1.2-4.06 4.27-20.12 6.87-26.88-1.83 1.35 5.42-6.6 6.83-10.32 7.88" stroke="#000" stroke-opacity="0" fill="#394d54"/><path d="M-546.04 405.08c-9-4.8-13.94-11.3-16.7-18.4-3.36 1.06-7.37 1.75-12.04 2.04-1.74.1-3.6.17-5.54.17-2.24 0-4.6-.08-7.07-.23 8.28 9.25 18.4 16.38 37.23 16.5 1.36 0 2.77 0 4.13-.1z" stroke="#000" stroke-opacity="0" fill="#bfdbe0"/><path d="M-559.4 393.23c-1.23-1.9-2.45-4.28-3.33-6.56-3.35 1.07-7.36 1.75-12.04 2.05 3.22 1.95 7.8 3.76 15.38 4.5z" stroke="#000" stroke-opacity="0" fill="#d4edf1"/><path d="M-819.73 326a6 6 0 0 1 6-6H-686a6 6 0 0 1 6 6v41.33a6 6 0 0 1-6 6h-127.73a6 6 0 0 1-6-6z" stroke="#282c33" stroke-width="2" fill="#ffe342"/><use xlink:href="#e" transform="matrix(1,0,0,1,-814.7291666666666,325) translate(34.845679012345684 26.02777777777778)"/><path d="M-900-634a6 6 0 0 1 6-6h208a6 6 0 0 1 6 6v228a6 6 0 0 1-6 6h-208a6 6 0 0 1-6-6z" stroke="#282c33" stroke-width="2" fill="#dfe3e8"/><path d="M-840-74a6 6 0 0 1 6-6h408a6 6 0 0 1 6 6v48a6 6 0 0 1-6 6h-408a6 6 0 0 1-6-6z" stroke="#282c33" stroke-width="2" fill="#e3fae3"/><use xlink:href="#f" transform="matrix(1,0,0,1,-835,-75) translate(78.64197530864197 30.27777777777778)"/><use xlink:href="#g" transform="matrix(1,0,0,1,-835,-75) translate(163.76543209876542 30.27777777777778)"/><use xlink:href="#h" transform="matrix(1,0,0,1,-835,-75) translate(247.53086419753083 30.27777777777778)"/><path d="M-40-74a6 6 0 0 1 6-6h248a6 6 0 0 1 6 6v488a6 6 0 0 1-6 6H-34a6 6 0 0 1-6-6z" stroke="#282c33" stroke-width="2" fill="url(#i)"/><path d="M0-34a6 6 0 0 1 6-6h168a6 6 0 0 1 6 6v188a6 6 0 0 1-6 6H6a6 6 0 0 1-6-6z" stroke="#282c33" stroke-width="2" fill="#ff9c9c"/><use xlink:href="#j" transform="matrix(1,0,0,1,5,-35) translate(27.098765432098766 100.90277777777777)"/><use xlink:href="#k" transform="matrix(1,0,0,1,5,-35) translate(112.09876543209876 100.90277777777777)"/><path d="M-840 46a6 6 0 0 1 6-6h408a6 6 0 0 1 6 6v208a6 6 0 0 1-6 6h-408a6 6 0 0 1-6-6z" stroke="#282c33" stroke-width="2" fill="#e3fae3"/><use xlink:href="#l" transform="matrix(1,0,0,1,-835,45.00000000000006) translate(128.54938271604937 96.52777777777777)"/><use xlink:href="#m" transform="matrix(1,0,0,1,-835,45.00000000000006) translate(182.74691358024688 96.52777777777777)"/><use xlink:href="#n" transform="matrix(1,0,0,1,-835,45.00000000000006) translate(228.42592592592592 96.52777777777777)"/><use xlink:href="#o" transform="matrix(1,0,0,1,-835,45.00000000000006) translate(163.0864197530864 123.19444444444446)"/><path d="M-320 46a6 6 0 0 1 6-6h158a6 6 0 0 1 6 6v448a6 6 0 0 1-6 6h-158a6 6 0 0 1-6-6z" stroke="#282c33" stroke-width="2" fill="#ffbd52"/><use xlink:href="#p" transform="matrix(1,0,0,1,-315,45) translate(27.654320987654316 214.65277777777777)"/><use xlink:href="#q" transform="matrix(1,0,0,1,-315,45) translate(41.141975308641975 241.31944444444443)"/><path d="M-544.5-260h61.03a6 6 0 0 1 6 6v159.08" stroke="#3a414a" fill="none"/><path d="M-558-260l13-7.5v15zM-477.47-81.43l-7.5-13h15z" stroke="#3a414a" fill="#3a414a"/><path d="M-849.85-600h118.05c9.15 0 9.15 0 9.15 10.08v65.76c0 10.08 0 10.08-9.15 10.08h-118.05c-9.15 0-9.15 0-9.15-10.08v-65.76c0-10.08 0-10.08 9.15-10.08z" fill="#29aae1"/><path d="M-849.85-591.6h118.8v66.6h-118.8v-66.6z" fill="#fff"/><path d="M-848.35-589.08h115.8v61.56h-115.8v-61.56z" fill="gray"/><path d="M-865-494.28h149.85V-480H-865v-14.28z" fill="#29aae1"/><path d="M-824.05-510.96h103.65l5.25 16.92H-818.8l-5.25-16.92z" fill="#29aae1"/><path d="M-757.45-510.96h-102.3l-5.25 16.8h102.3l5.25-16.8z" fill="#29aae1"/><path d="M-816.1-507.72h89.7l3.6 11.28h-89.7l-3.6-11.28z" fill="#fff"/><path d="M-779.2-507.72h-75.3l-3 11.28h75.3l3-11.28z" fill="#fff"/><use xlink:href="#r" transform="matrix(1,0,0,1,-895,-480) translate(49.51851851851851 21.333333333333336)"/><use xlink:href="#s" transform="matrix(1,0,0,1,-895,-480) translate(104.33333333333334 21.333333333333336)"/><path d="M22.9 244.3L10 248.93v81.9l12.9 4.66 31.58-45.6-31.58-45.6z" fill="#8c3123"/><path d="M89.97 323.72l-67.1 11.77v-91.2l67.1 11.75 31.73 33.93-31.73 33.74z" fill="#e05243"/><path d="M90 323.72l67.12 11.77 11.57-44.43-11.58-46.78L90 256.04v67.67z" fill="#8c3123"/><path d="M157.1 244.3l12.88 4.64v81.9l-12.9 4.66v-91.2z" fill="#e05243"/><path d="M60.72 304.98L90 307.7l23.18-17.66-23.2-17.67-29.26 2.65v29.96z" fill="#8c3123"/><path d="M119.25 260.53l-29.27 3.86-29.26-3.87L89.98 220l29.27 40.53z" fill="#5e1f18"/><path d="M119.25 319.46l-29.27-3.9-29.26 3.9L89.98 360l29.27-40.54z" fill="#f2b0a9"/><path d="M119.26 260.54L90 255.3V220l29.26 10.58v29.96z" fill="#e05243"/><path d="M60.72 260.54l29.26-5.23V220l-29.26 10.58v29.96z" fill="#8c3123"/><path d="M90 360l29.26-10.6v-29.96L90 324.67V360z" fill="#e05243"/><path d="M89.98 360l-29.26-10.6v-29.96l29.26 5.23V360z" fill="#8c3123"/><path d="M119.26 304.98L90 307.7v-35.33l29.26 2.65v29.96z" fill="#e05243"/><use xlink:href="#t" transform="matrix(1,0,0,1,10,360) translate(34.30246913580247 19.555555555555557)"/><use xlink:href="#u" transform="matrix(1,0,0,1,10,360) translate(95.82098765432099 19.555555555555557)"/><path d="M-630 24.5v-29" stroke="#3a414a" fill="none"/><path d="M-630 38l-7.5-13h15zM-630-18l7.5 13h-15z" stroke="#3a414a" fill="#3a414a"/><path d="M-325-270h180v180h-180v-180z" stroke="#fff" stroke-opacity="0" stroke-width="2" fill="#d86613"/><path d="M-179.8-120h-29.58c-.96 0-1.72-.48-2.1-1.32l-41.88-87.48H-271c-1.35 0-2.4-1.08-2.4-2.4v-26.4c0-1.32 1.05-2.4 2.4-2.4h36.97c.96 0 1.72.48 2.1 1.32l41.68 87.48h10.47c1.34 0 2.4 1.08 2.4 2.4v26.4c0 1.32-1.06 2.4-2.4 2.4zm-28.04-4.8h25.64v-21.6h-9.6c-.96 0-1.73-.48-2.12-1.32l-41.67-87.48h-33.02v21.6h16.8c.96 0 1.73.48 2.2 1.32z" stroke="#fff" stroke-opacity="0" stroke-width="2" fill="#fff"/><path d="M-259.07-120h-31.17c-.85 0-1.6-.44-2.07-1.1-.5-.8-.5-1.68-.12-2.4l32.66-68.2c.38-.87 1.22-1.38 2.13-1.38.95 0 1.75.5 2.17 1.32l15.62 32.15c.37.65.37 1.38 0 2.1l-17.05 35.97c-.3.95-1.16 1.53-2.17 1.53zm-27.35-4.82h25.87l15.88-33.55-12.9-26.82z" stroke="#fff" stroke-opacity="0" stroke-width="2" fill="#fff"/><use xlink:href="#v" transform="matrix(1,0,0,1,-355,-81) translate(38.33333333333333 21.333333333333336)"/><use xlink:href="#w" transform="matrix(1,0,0,1,-355,-81) translate(105.44444444444444 21.333333333333336)"/><path d="M209.97-505.08v13.86c0 25.18-27.3 51.2-60.6 51.2H-29.37c-33.3 0-60.6-26.02-60.6-51.2v-13.86z" fill="#7d7c7c"/><path d="M25.5-640c30.88 0 56.98 17.2 69.88 45.75 17.7-12.3 42-7.75 54 10.4 4.5 6.43 6.6 13.05 6.9 20.8 30.3 2.64 53.7 32.33 53.7 55.96v5.1c0 25.35-27.3 51.06-60.6 51.06h-178.8C-62.7-450.94-90-476.64-90-502v-5.1c0-19.65 16.2-46.5 38.7-53.12v-2.26c.3-42.92 34.5-77.7 76.8-77.52z" fill="#d2d3d3"/><path d="M89.1-475.54c-2.32 0-4.35-.86-6-2.55-12.8-12.98-33.43-12.98-46.22 0-3.32 3.4-8.73 3.4-12.05 0-3.3-3.4-3.3-8.9 0-12.27 19.42-19.78 50.9-19.78 70.3 0 3.32 3.38 3.32 8.9 0 12.25-1.65 1.7-3.68 2.52-6.02 2.55z" fill="#fff"/><path d="M112.3-499.1c-2.43-.04-4.36-.86-6.05-2.56-25.63-25.97-66.97-25.97-92.47 0-3.63 3-9.06 2.4-11.97-1.33-2.52-3.18-2.52-7.55-.1-10.78 32.27-32.75 84.36-32.75 116.63 0 3.27 3.42 3.27 8.9-.12 12.28-1.56 1.65-3.6 2.52-5.9 2.52z" fill="#fff"/><path d="M137.22-522.46c-2.4 0-4.3-.85-6-2.55-39.3-40.1-103.12-40.1-142.4 0-3.44 3.4-8.76 3.4-12.02 0-3.43-3.4-3.43-8.9 0-12.3 45.98-46.84 120.45-46.84 166.43 0 3.43 3.4 3.43 8.9.17 12.3-1.72 1.7-3.78 2.54-6.18 2.54z" fill="#fff"/><path d="M-819.87 406a6 6 0 0 1 6-6h127.74a6 6 0 0 1 6 6v41.33a6 6 0 0 1-6 6h-127.74a6 6 0 0 1-6-6z" stroke="#282c33" stroke-width="2" fill="#ffe342"/><use xlink:href="#x" transform="matrix(1,0,0,1,-814.8645833333333,405) translate(13.209876543209873 26.02777777777778)"/><path d="M-543.67-634a6 6 0 0 1 6-6H-231a6 6 0 0 1 6 6v228a6 6 0 0 1-6 6h-306.67a6 6 0 0 1-6-6z" stroke="#282c33" stroke-width="2" fill="#ffe342"/><path d="M-239.38-460h67.45a6 6 0 0 0 6-6v-68a6 6 0 0 1 6-6h67.46" stroke="#3a414a" fill="none"/><path d="M-252.88-460l13-7.5v15zM-78.98-540l-13 7.5v-15z" stroke="#3a414a" fill="#3a414a"/><path d="M-664.5-520h61.6a6 6 0 0 0 6-6v-39.43a6 6 0 0 1 6-6h61.62" stroke="#3a414a" fill="none"/><path d="M-678-520l13-7.5v15zM-515.8-571.43l-12.98 7.5v-15z" stroke="#3a414a" fill="#3a414a"/><path d="M-513.8-599.7a6 6 0 0 1 6-6h246.93a6 6 0 0 1 6 6v56.56a6 6 0 0 1-6 6H-507.8a6 6 0 0 1-6-6z" stroke="#282c33" stroke-width="2" fill="#ffe342"/><use xlink:href="#e" transform="matrix(1,0,0,1,-508.79166666666663,-600.7142857142858) translate(94.34567901234568 32.52777777777778)"/><path d="M-513.8-488.3a6 6 0 0 1 6-6h246.93a6 6 0 0 1 6 6v56.6a6 6 0 0 1-6 6H-507.8a6 6 0 0 1-6-6z" stroke="#282c33" stroke-width="2" fill="#ffe342"/><use xlink:href="#x" transform="matrix(1,0,0,1,-508.79166666666663,-489.2857142857143) translate(72.70987654320987 32.52777777777778)"/><path d="M-335.5 150h-69" stroke="#3a414a" fill="none"/><path d="M-322 150l-13 7.5v-15zM-418 150l13-7.5v15z" stroke="#3a414a" fill="#3a414a"/><path d="M90-95.5V-144a6 6 0 0 0-6-6H23a6 6 0 0 1-6-6v-269.53" stroke="#3a414a" fill="none"/><path d="M90-82l-7.5-13h15zM17-439.02l7.5 13h-15z" stroke="#3a414a" fill="#3a414a"/><path d="M213.74-302.74l4.73-8.2h22.58L248-323.1l-13.96-24.36h-19.6l-6.75-12.17h-7.62v-8.2h12.4l6.77 12.18h10.12L215.4-380h-27.3v32.54h11.08l4.67 8.08H188.1v16.27h14.43l6.7-12.18h17.98l4.63 8.2H213.9l-6.7 12.05h-19.1v28.56h21.74l-4.6 8.08H188.1v12.2h27.3l20.98-36.54h-13.36l-4.67 8.08h-18.27v-8.08h13.66z" stroke="#000" stroke-opacity="0" fill="#4285f4"/><path d="M154.28-302.74l-4.68-8.2h-22.64L120-323.1l13.93-24.36h19.7l6.77-12.17h7.63v-8.2H155.6l-6.78 12.18h-10.2L152.65-380h27.37v32.54h-11.16l-4.63 8.08h15.8v16.27H165.5l-6.72-12.18h-18l-4.57 8.2h17.9l6.72 12.05h19.2v28.56H158.2l4.62 8.08h17.23v12.2h-27.37l-21-36.54h13.37l4.7 8.08h18.3v-8.08h-13.75z" stroke="#000" stroke-opacity="0" fill="#669df6"/><path d="M152.13-379.77L120-325.72l37.25 59.28 58.75.23 32-53.95L210.62-380z" fill-opacity="0"/><g><use xlink:href="#y" transform="matrix(1,0,0,1,120,-261.21) translate(18.56494140625 16.69921875)"/><use xlink:href="#z" transform="matrix(1,0,0,1,120,-261.21) translate(39.65869140625 16.69921875)"/></g><path d="M-18-425.53V-314a6 6 0 0 1-6 6h-520.5" stroke="#3a414a" fill="none"/><path d="M-18-439.02l7.5 13h-15zM-558-308l13-7.5v15z" stroke="#3a414a" fill="#3a414a"/><path d="M60-425.53v96.42a6 6 0 0 0 6 6h39.5" stroke="#3a414a" fill="none"/><path d="M60-439.02l7.5 13h-15zM119-323.1l-13 7.5v-15z" stroke="#3a414a" fill="#3a414a"/><path d="M-384.33-521.65v11.87" stroke="#3a414a" fill="none"/><path d="M-384.33-535.14l7.5 13h-15zM-384.33-496.3l-7.5-12.98h15z" stroke="#3a414a" fill="#3a414a"/><defs><linearGradient gradientUnits="userSpaceOnUse" id="a" x1="-940" y1="-380" x2="-940" y2="640"><stop offset="18.57%" stop-color="#ffdda6"/><stop offset="65.36%" stop-color="#fc9432"/><stop offset="91.43%" stop-color="#e87203"/></linearGradient><linearGradient gradientUnits="userSpaceOnUse" id="b" x1="-900" y1="-140" x2="-900" y2="580"><stop offset="0%" stop-color="#fff"/><stop offset="50.55%" stop-color="#cfe4ff"/><stop offset="100%" stop-color="#8abdff"/></linearGradient><path fill="#3a414a" d="M30 0v-248h33v221h125V0H30" id="A"/><path fill="#3a414a" d="M141-36C126-15 110 5 73 4 37 3 15-17 15-53c-1-64 63-63 125-63 3-35-9-54-41-54-24 1-41 7-42 31l-33-3c5-37 33-52 76-52 45 0 72 20 72 64v82c-1 20 7 32 28 27v20c-31 9-61-2-59-35zM48-53c0 20 12 33 32 33 41-3 63-29 60-74-43 2-92-5-92 41" id="B"/><path fill="#3a414a" d="M210-169c-67 3-38 105-44 169h-31v-121c0-29-5-50-35-48C34-165 62-65 56 0H25l-1-190h30c1 10-1 24 2 32 10-44 99-50 107 0 11-21 27-35 58-36 85-2 47 119 55 194h-31v-121c0-29-5-49-35-48" id="C"/><path fill="#3a414a" d="M115-194c53 0 69 39 70 98 0 66-23 100-70 100C84 3 66-7 56-30L54 0H23l1-261h32v101c10-23 28-34 59-34zm-8 174c40 0 45-34 45-75 0-40-5-75-45-74-42 0-51 32-51 76 0 43 10 73 51 73" id="D"/><path fill="#3a414a" d="M85-194c31 0 48 13 60 33l-1-100h32l1 261h-30c-2-10 0-23-3-31C134-8 116 4 85 4 32 4 16-35 15-94c0-66 23-100 70-100zm9 24c-40 0-46 34-46 75 0 40 6 74 45 74 42 0 51-32 51-76 0-42-9-74-50-73" id="E"/><g id="c"><use transform="matrix(0.06172839506172839,0,0,0.06172839506172839,0,0)" xlink:href="#A"/><use transform="matrix(0.06172839506172839,0,0,0.06172839506172839,12.345679012345679,0)" xlink:href="#B"/><use transform="matrix(0.06172839506172839,0,0,0.06172839506172839,24.691358024691358,0)" xlink:href="#C"/><use transform="matrix(0.06172839506172839,0,0,0.06172839506172839,43.148148148148145,0)" xlink:href="#D"/><use transform="matrix(0.06172839506172839,0,0,0.06172839506172839,55.49382716049382,0)" xlink:href="#E"/><use transform="matrix(0.06172839506172839,0,0,0.06172839506172839,67.8395061728395,0)" xlink:href="#B"/></g><path fill="#3a414a" d="M63-220v92h138v28H63V0H30v-248h175v28H63" id="F"/><path fill="#3a414a" d="M84 4C-5 8 30-112 23-190h32v120c0 31 7 50 39 49 72-2 45-101 50-169h31l1 190h-30c-1-10 1-25-2-33-11 22-28 36-60 37" id="G"/><path fill="#3a414a" d="M117-194c89-4 53 116 60 194h-32v-121c0-31-8-49-39-48C34-167 62-67 57 0H25l-1-190h30c1 10-1 24 2 32 11-22 29-35 61-36" id="H"/><path fill="#3a414a" d="M96-169c-40 0-48 33-48 73s9 75 48 75c24 0 41-14 43-38l32 2c-6 37-31 61-74 61-59 0-76-41-82-99-10-93 101-131 147-64 4 7 5 14 7 22l-32 3c-4-21-16-35-41-35" id="I"/><path fill="#3a414a" d="M59-47c-2 24 18 29 38 22v24C64 9 27 4 27-40v-127H5v-23h24l9-43h21v43h35v23H59v120" id="J"/><path fill="#3a414a" d="M24-231v-30h32v30H24zM24 0v-190h32V0H24" id="K"/><path fill="#3a414a" d="M100-194c62-1 85 37 85 99 1 63-27 99-86 99S16-35 15-95c0-66 28-99 85-99zM99-20c44 1 53-31 53-75 0-43-8-75-51-75s-53 32-53 75 10 74 51 75" id="L"/><g id="d"><use transform="matrix(0.06172839506172839,0,0,0.06172839506172839,0,0)" xlink:href="#F"/><use transform="matrix(0.06172839506172839,0,0,0.06172839506172839,13.518518518518517,0)" xlink:href="#G"/><use transform="matrix(0.06172839506172839,0,0,0.06172839506172839,25.864197530864196,0)" xlink:href="#H"/><use transform="matrix(0.06172839506172839,0,0,0.06172839506172839,38.20987654320987,0)" xlink:href="#I"/><use transform="matrix(0.06172839506172839,0,0,0.06172839506172839,49.32098765432099,0)" xlink:href="#J"/><use transform="matrix(0.06172839506172839,0,0,0.06172839506172839,55.49382716049383,0)" xlink:href="#K"/><use transform="matrix(0.06172839506172839,0,0,0.06172839506172839,60.370370370370374,0)" xlink:href="#L"/><use transform="matrix(0.06172839506172839,0,0,0.06172839506172839,72.71604938271605,0)" xlink:href="#H"/></g><path fill="#3a414a" d="M197 0v-115H63V0H30v-248h33v105h134v-105h34V0h-34" id="M"/><path fill="#3a414a" d="M127-220V0H93v-220H8v-28h204v28h-85" id="N"/><path fill="#3a414a" d="M240 0l2-218c-23 76-54 145-80 218h-23L58-218 59 0H30v-248h44l77 211c21-75 51-140 76-211h43V0h-30" id="O"/><g id="e"><use transform="matrix(0.06172839506172839,0,0,0.06172839506172839,0,0)" xlink:href="#M"/><use transform="matrix(0.06172839506172839,0,0,0.06172839506172839,15.987654320987653,0)" xlink:href="#N"/><use transform="matrix(0.06172839506172839,0,0,0.06172839506172839,29.50617283950617,0)" xlink:href="#O"/><use transform="matrix(0.06172839506172839,0,0,0.06172839506172839,47.96296296296296,0)" xlink:href="#A"/></g><path fill="#3a414a" d="M135-143c-3-34-86-38-87 0 15 53 115 12 119 90S17 21 10-45l28-5c4 36 97 45 98 0-10-56-113-15-118-90-4-57 82-63 122-42 12 7 21 19 24 35" id="P"/><path fill="#3a414a" d="M205 0l-28-72H64L36 0H1l101-248h38L239 0h-34zm-38-99l-47-123c-12 45-31 82-46 123h93" id="Q"/><path fill="#3a414a" d="M30-248c87 1 191-15 191 75 0 78-77 80-158 76V0H30v-248zm33 125c57 0 124 11 124-50 0-59-68-47-124-48v98" id="R"/><path fill="#3a414a" d="M33 0v-248h34V0H33" id="S"/><g id="f"><use transform="matrix(0.06172839506172839,0,0,0.06172839506172839,0,0)" xlink:href="#F"/><use transform="matrix(0.06172839506172839,0,0,0.06172839506172839,13.518518518518517,0)" xlink:href="#B"/><use transform="matrix(0.06172839506172839,0,0,0.06172839506172839,25.864197530864196,0)" xlink:href="#P"/><use transform="matrix(0.06172839506172839,0,0,0.06172839506172839,36.9753086419753,0)" xlink:href="#J"/><use transform="matrix(0.06172839506172839,0,0,0.06172839506172839,43.148148148148145,0)" xlink:href="#Q"/><use transform="matrix(0.06172839506172839,0,0,0.06172839506172839,57.96296296296296,0)" xlink:href="#R"/><use transform="matrix(0.06172839506172839,0,0,0.06172839506172839,72.77777777777777,0)" xlink:href="#S"/></g><path fill="#3a414a" d="M24 0v-261h32V0H24" id="T"/><path fill="#3a414a" d="M100-194c63 0 86 42 84 106H49c0 40 14 67 53 68 26 1 43-12 49-29l28 8c-11 28-37 45-77 45C44 4 14-33 15-96c1-61 26-98 85-98zm52 81c6-60-76-77-97-28-3 7-6 17-6 28h103" id="U"/><path fill="#3a414a" d="M114-163C36-179 61-72 57 0H25l-1-190h30c1 12-1 29 2 39 6-27 23-49 58-41v29" id="V"/><g id="g"><use transform="matrix(0.06172839506172839,0,0,0.06172839506172839,0,0)" xlink:href="#M"/><use transform="matrix(0.06172839506172839,0,0,0.06172839506172839,15.987654320987653,0)" xlink:href="#B"/><use transform="matrix(0.06172839506172839,0,0,0.06172839506172839,28.333333333333332,0)" xlink:href="#H"/><use transform="matrix(0.06172839506172839,0,0,0.06172839506172839,40.67901234567901,0)" xlink:href="#E"/><use transform="matrix(0.06172839506172839,0,0,0.06172839506172839,53.02469135802469,0)" xlink:href="#T"/><use transform="matrix(0.06172839506172839,0,0,0.06172839506172839,57.901234567901234,0)" xlink:href="#U"/><use transform="matrix(0.06172839506172839,0,0,0.06172839506172839,70.24691358024691,0)" xlink:href="#V"/></g><path fill="#3a414a" d="M87 75C49 33 22-17 22-94c0-76 28-126 65-167h31c-38 41-64 92-64 168S80 34 118 75H87" id="W"/><path fill="#3a414a" d="M179-190L93 31C79 59 56 82 12 73V49c39 6 53-20 64-50L1-190h34L92-34l54-156h33" id="X"/><path fill="#3a414a" d="M106-169C34-169 62-67 57 0H25v-261h32l-1 103c12-21 28-36 61-36 89 0 53 116 60 194h-32v-121c2-32-8-49-39-48" id="Y"/><path fill="#3a414a" d="M33-261c38 41 65 92 65 168S71 34 33 75H2C39 34 66-17 66-93S39-220 2-261h31" id="Z"/><g id="h"><use transform="matrix(0.06172839506172839,0,0,0.06172839506172839,0,0)" xlink:href="#W"/><use transform="matrix(0.06172839506172839,0,0,0.06172839506172839,7.345679012345679,0)" xlink:href="#R"/><use transform="matrix(0.06172839506172839,0,0,0.06172839506172839,22.160493827160494,0)" xlink:href="#X"/><use transform="matrix(0.06172839506172839,0,0,0.06172839506172839,33.27160493827161,0)" xlink:href="#J"/><use transform="matrix(0.06172839506172839,0,0,0.06172839506172839,39.44444444444445,0)" xlink:href="#Y"/><use transform="matrix(0.06172839506172839,0,0,0.06172839506172839,51.79012345679013,0)" xlink:href="#L"/><use transform="matrix(0.06172839506172839,0,0,0.06172839506172839,64.13580246913581,0)" xlink:href="#H"/><use transform="matrix(0.06172839506172839,0,0,0.06172839506172839,76.4814814814815,0)" xlink:href="#Z"/></g><linearGradient gradientUnits="userSpaceOnUse" id="i" x1="-40" y1="-80" x2="-40" y2="420"><stop offset="0%" stop-color="#fff"/><stop offset="47.7%" stop-color="#ffd9d9"/><stop offset="100%" stop-color="#fe7070"/></linearGradient><path fill="#3a414a" d="M212-179c-10-28-35-45-73-45-59 0-87 40-87 99 0 60 29 101 89 101 43 0 62-24 78-52l27 14C228-24 195 4 139 4 59 4 22-46 18-125c-6-104 99-153 187-111 19 9 31 26 39 46" id="aa"/><g id="j"><use transform="matrix(0.06172839506172839,0,0,0.06172839506172839,0,0)" xlink:href="#aa"/><use transform="matrix(0.06172839506172839,0,0,0.06172839506172839,15.987654320987653,0)" xlink:href="#Y"/><use transform="matrix(0.06172839506172839,0,0,0.06172839506172839,28.333333333333332,0)" xlink:href="#V"/><use transform="matrix(0.06172839506172839,0,0,0.06172839506172839,35.67901234567901,0)" xlink:href="#L"/><use transform="matrix(0.06172839506172839,0,0,0.06172839506172839,48.02469135802469,0)" xlink:href="#C"/><use transform="matrix(0.06172839506172839,0,0,0.06172839506172839,66.48148148148148,0)" xlink:href="#B"/></g><path fill="#3a414a" d="M30-248c118-7 216 8 213 122C240-48 200 0 122 0H30v-248zM63-27c89 8 146-16 146-99s-60-101-146-95v194" id="ab"/><path fill="#3a414a" d="M160-131c35 5 61 23 61 61C221 17 115-2 30 0v-248c76 3 177-17 177 60 0 33-19 50-47 57zm-97-11c50-1 110 9 110-42 0-47-63-36-110-37v79zm0 115c55-2 124 14 124-45 0-56-70-42-124-44v89" id="ac"/><g id="k"><use transform="matrix(0.06172839506172839,0,0,0.06172839506172839,0,0)" xlink:href="#ab"/><use transform="matrix(0.06172839506172839,0,0,0.06172839506172839,15.987654320987653,0)" xlink:href="#ac"/></g><g id="l"><use transform="matrix(0.06172839506172839,0,0,0.06172839506172839,0,0)" xlink:href="#O"/><use transform="matrix(0.06172839506172839,0,0,0.06172839506172839,18.456790123456788,0)" xlink:href="#B"/><use transform="matrix(0.06172839506172839,0,0,0.06172839506172839,30.80246913580247,0)" xlink:href="#K"/><use transform="matrix(0.06172839506172839,0,0,0.06172839506172839,35.67901234567901,0)" xlink:href="#H"/></g><path fill="#3a414a" d="M115-194c55 1 70 41 70 98S169 2 115 4C84 4 66-9 55-30l1 105H24l-1-265h31l2 30c10-21 28-34 59-34zm-8 174c40 0 45-34 45-75s-6-73-45-74c-42 0-51 32-51 76 0 43 10 73 51 73" id="ad"/><g id="m"><use transform="matrix(0.06172839506172839,0,0,0.06172839506172839,0,0)" xlink:href="#Q"/><use transform="matrix(0.06172839506172839,0,0,0.06172839506172839,14.814814814814813,0)" xlink:href="#ad"/><use transform="matrix(0.06172839506172839,0,0,0.06172839506172839,27.160493827160494,0)" xlink:href="#ad"/></g><path fill="#3a414a" d="M177-190C167-65 218 103 67 71c-23-6-38-20-44-43l32-5c15 47 100 32 89-28v-30C133-14 115 1 83 1 29 1 15-40 15-95c0-56 16-97 71-98 29-1 48 16 59 35 1-10 0-23 2-32h30zM94-22c36 0 50-32 50-73 0-42-14-75-50-75-39 0-46 34-46 75s6 73 46 73" id="ae"/><g id="n"><use transform="matrix(0.06172839506172839,0,0,0.06172839506172839,0,0)" xlink:href="#A"/><use transform="matrix(0.06172839506172839,0,0,0.06172839506172839,12.345679012345679,0)" xlink:href="#L"/><use transform="matrix(0.06172839506172839,0,0,0.06172839506172839,24.691358024691358,0)" xlink:href="#ae"/><use transform="matrix(0.06172839506172839,0,0,0.06172839506172839,37.03703703703704,0)" xlink:href="#K"/><use transform="matrix(0.06172839506172839,0,0,0.06172839506172839,41.91358024691358,0)" xlink:href="#I"/></g><g id="o"><use transform="matrix(0.06172839506172839,0,0,0.06172839506172839,0,0)" xlink:href="#W"/><use transform="matrix(0.06172839506172839,0,0,0.06172839506172839,7.345679012345679,0)" xlink:href="#R"/><use transform="matrix(0.06172839506172839,0,0,0.06172839506172839,22.160493827160494,0)" xlink:href="#X"/><use transform="matrix(0.06172839506172839,0,0,0.06172839506172839,33.27160493827161,0)" xlink:href="#J"/><use transform="matrix(0.06172839506172839,0,0,0.06172839506172839,39.44444444444445,0)" xlink:href="#Y"/><use transform="matrix(0.06172839506172839,0,0,0.06172839506172839,51.79012345679013,0)" xlink:href="#L"/><use transform="matrix(0.06172839506172839,0,0,0.06172839506172839,64.13580246913581,0)" xlink:href="#H"/><use transform="matrix(0.06172839506172839,0,0,0.06172839506172839,76.4814814814815,0)" xlink:href="#Z"/></g><g id="p"><use transform="matrix(0.06172839506172839,0,0,0.06172839506172839,0,0)" xlink:href="#N"/><use transform="matrix(0.06172839506172839,0,0,0.06172839506172839,11.049382716049381,0)" xlink:href="#U"/><use transform="matrix(0.06172839506172839,0,0,0.06172839506172839,23.39506172839506,0)" xlink:href="#C"/><use transform="matrix(0.06172839506172839,0,0,0.06172839506172839,41.85185185185185,0)" xlink:href="#ad"/><use transform="matrix(0.06172839506172839,0,0,0.06172839506172839,54.197530864197525,0)" xlink:href="#L"/><use transform="matrix(0.06172839506172839,0,0,0.06172839506172839,66.5432098765432,0)" xlink:href="#V"/><use transform="matrix(0.06172839506172839,0,0,0.06172839506172839,73.88888888888889,0)" xlink:href="#B"/><use transform="matrix(0.06172839506172839,0,0,0.06172839506172839,86.23456790123457,0)" xlink:href="#V"/><use transform="matrix(0.06172839506172839,0,0,0.06172839506172839,93.58024691358025,0)" xlink:href="#X"/></g><path fill="#3a414a" d="M185-189c-5-48-123-54-124 2 14 75 158 14 163 119 3 78-121 87-175 55-17-10-28-26-33-46l33-7c5 56 141 63 141-1 0-78-155-14-162-118-5-82 145-84 179-34 5 7 8 16 11 25" id="af"/><g id="q"><use transform="matrix(0.06172839506172839,0,0,0.06172839506172839,0,0)" xlink:href="#af"/><use transform="matrix(0.06172839506172839,0,0,0.06172839506172839,14.814814814814813,0)" xlink:href="#J"/><use transform="matrix(0.06172839506172839,0,0,0.06172839506172839,20.98765432098765,0)" xlink:href="#L"/><use transform="matrix(0.06172839506172839,0,0,0.06172839506172839,33.33333333333333,0)" xlink:href="#V"/><use transform="matrix(0.06172839506172839,0,0,0.06172839506172839,40.679012345679006,0)" xlink:href="#B"/><use transform="matrix(0.06172839506172839,0,0,0.06172839506172839,53.02469135802468,0)" xlink:href="#ae"/><use transform="matrix(0.06172839506172839,0,0,0.06172839506172839,65.37037037037037,0)" xlink:href="#U"/></g><path d="M30 0v-248h187v28H63v79h144v27H63v87h162V0H30" id="ag"/><path d="M117-194c89-4 53 116 60 194h-32v-121c0-31-8-49-39-48C34-167 62-67 57 0H25l-1-190h30c1 10-1 24 2 32 11-22 29-35 61-36" id="ah"/><path d="M85-194c31 0 48 13 60 33l-1-100h32l1 261h-30c-2-10 0-23-3-31C134-8 116 4 85 4 32 4 16-35 15-94c0-66 23-100 70-100zm9 24c-40 0-46 34-46 75 0 40 6 74 45 74 42 0 51-32 51-76 0-42-9-74-50-73" id="ai"/><g id="r"><use transform="matrix(0.07407407407407408,0,0,0.07407407407407408,0,0)" xlink:href="#ag"/><use transform="matrix(0.07407407407407408,0,0,0.07407407407407408,17.77777777777778,0)" xlink:href="#ah"/><use transform="matrix(0.07407407407407408,0,0,0.07407407407407408,32.592592592592595,0)" xlink:href="#ai"/></g><path d="M232-93c-1 65-40 97-104 97C67 4 28-28 28-90v-158h33c8 89-33 224 67 224 102 0 64-133 71-224h33v155" id="aj"/><path d="M135-143c-3-34-86-38-87 0 15 53 115 12 119 90S17 21 10-45l28-5c4 36 97 45 98 0-10-56-113-15-118-90-4-57 82-63 122-42 12 7 21 19 24 35" id="ak"/><path d="M100-194c63 0 86 42 84 106H49c0 40 14 67 53 68 26 1 43-12 49-29l28 8c-11 28-37 45-77 45C44 4 14-33 15-96c1-61 26-98 85-98zm52 81c6-60-76-77-97-28-3 7-6 17-6 28h103" id="al"/><path d="M114-163C36-179 61-72 57 0H25l-1-190h30c1 12-1 29 2 39 6-27 23-49 58-41v29" id="am"/><g id="s"><use transform="matrix(0.07407407407407408,0,0,0.07407407407407408,0,0)" xlink:href="#aj"/><use transform="matrix(0.07407407407407408,0,0,0.07407407407407408,19.185185185185187,0)" xlink:href="#ak"/><use transform="matrix(0.07407407407407408,0,0,0.07407407407407408,32.51851851851852,0)" xlink:href="#al"/><use transform="matrix(0.07407407407407408,0,0,0.07407407407407408,47.33333333333334,0)" xlink:href="#am"/></g><path d="M205 0l-28-72H64L36 0H1l101-248h38L239 0h-34zm-38-99l-47-123c-12 45-31 82-46 123h93" id="an"/><path d="M266 0h-40l-56-210L115 0H75L2-248h35L96-30l15-64 43-154h32l59 218 59-218h35" id="ao"/><path d="M185-189c-5-48-123-54-124 2 14 75 158 14 163 119 3 78-121 87-175 55-17-10-28-26-33-46l33-7c5 56 141 63 141-1 0-78-155-14-162-118-5-82 145-84 179-34 5 7 8 16 11 25" id="ap"/><g id="t"><use transform="matrix(0.06790123456790124,0,0,0.06790123456790124,0,0)" xlink:href="#an"/><use transform="matrix(0.06790123456790124,0,0,0.06790123456790124,15.41358024691358,0)" xlink:href="#ao"/><use transform="matrix(0.06790123456790124,0,0,0.06790123456790124,38.4320987654321,0)" xlink:href="#ap"/></g><path d="M126-127c33 6 58 20 58 59 0 88-139 92-164 29-3-8-5-16-6-25l32-3c6 27 21 44 54 44 32 0 52-15 52-46 0-38-36-46-79-43v-28c39 1 72-4 72-42 0-27-17-43-46-43-28 0-47 15-49 41l-32-3c6-42 35-63 81-64 48-1 79 21 79 65 0 36-21 52-52 59" id="aq"/><g id="u"><use transform="matrix(0.06790123456790124,0,0,0.06790123456790124,0,0)" xlink:href="#ap"/><use transform="matrix(0.06790123456790124,0,0,0.06790123456790124,16.296296296296298,0)" xlink:href="#aq"/></g><g id="v"><use transform="matrix(0.07407407407407408,0,0,0.07407407407407408,0,0)" xlink:href="#an"/><use transform="matrix(0.07407407407407408,0,0,0.07407407407407408,16.814814814814817,0)" xlink:href="#ao"/><use transform="matrix(0.07407407407407408,0,0,0.07407407407407408,41.92592592592593,0)" xlink:href="#ap"/></g><path d="M30 0v-248h33v221h125V0H30" id="ar"/><path d="M141-36C126-15 110 5 73 4 37 3 15-17 15-53c-1-64 63-63 125-63 3-35-9-54-41-54-24 1-41 7-42 31l-33-3c5-37 33-52 76-52 45 0 72 20 72 64v82c-1 20 7 32 28 27v20c-31 9-61-2-59-35zM48-53c0 20 12 33 32 33 41-3 63-29 60-74-43 2-92-5-92 41" id="as"/><path d="M210-169c-67 3-38 105-44 169h-31v-121c0-29-5-50-35-48C34-165 62-65 56 0H25l-1-190h30c1 10-1 24 2 32 10-44 99-50 107 0 11-21 27-35 58-36 85-2 47 119 55 194h-31v-121c0-29-5-49-35-48" id="at"/><path d="M115-194c53 0 69 39 70 98 0 66-23 100-70 100C84 3 66-7 56-30L54 0H23l1-261h32v101c10-23 28-34 59-34zm-8 174c40 0 45-34 45-75 0-40-5-75-45-74-42 0-51 32-51 76 0 43 10 73 51 73" id="au"/><g id="w"><use transform="matrix(0.07407407407407408,0,0,0.07407407407407408,0,0)" xlink:href="#ar"/><use transform="matrix(0.07407407407407408,0,0,0.07407407407407408,14.814814814814817,0)" xlink:href="#as"/><use transform="matrix(0.07407407407407408,0,0,0.07407407407407408,29.629629629629633,0)" xlink:href="#at"/><use transform="matrix(0.07407407407407408,0,0,0.07407407407407408,51.777777777777786,0)" xlink:href="#au"/><use transform="matrix(0.07407407407407408,0,0,0.07407407407407408,66.59259259259261,0)" xlink:href="#ai"/><use transform="matrix(0.07407407407407408,0,0,0.07407407407407408,81.40740740740742,0)" xlink:href="#as"/></g><path fill="#3a414a" d="M153-248C145-148 188 4 80 4 36 3 13-21 6-62l32-5c4 25 16 42 43 43 27 0 39-20 39-49v-147H72v-28h81" id="av"/><path fill="#3a414a" d="M108 0H70L1-190h34L89-25l56-165h34" id="aw"/><g id="x"><use transform="matrix(0.06172839506172839,0,0,0.06172839506172839,0,0)" xlink:href="#av"/><use transform="matrix(0.06172839506172839,0,0,0.06172839506172839,11.11111111111111,0)" xlink:href="#B"/><use transform="matrix(0.06172839506172839,0,0,0.06172839506172839,23.45679012345679,0)" xlink:href="#aw"/><use transform="matrix(0.06172839506172839,0,0,0.06172839506172839,34.5679012345679,0)" xlink:href="#B"/><use transform="matrix(0.06172839506172839,0,0,0.06172839506172839,46.913580246913575,0)" xlink:href="#af"/><use transform="matrix(0.06172839506172839,0,0,0.06172839506172839,61.72839506172839,0)" xlink:href="#I"/><use transform="matrix(0.06172839506172839,0,0,0.06172839506172839,72.8395061728395,0)" xlink:href="#V"/><use transform="matrix(0.06172839506172839,0,0,0.06172839506172839,80.18518518518519,0)" xlink:href="#K"/><use transform="matrix(0.06172839506172839,0,0,0.06172839506172839,85.06172839506173,0)" xlink:href="#ad"/><use transform="matrix(0.06172839506172839,0,0,0.06172839506172839,97.40740740740742,0)" xlink:href="#J"/></g><path d="M973-380H363L226 0H28l556-1456h168L1309 0h-197zM421-538h495l-248-681" id="ax"/><path d="M375 0H183v-1456h192V0" id="ay"/><g id="y"><use transform="matrix(0.0087890625,0,0,0.0087890625,0,0)" xlink:href="#ax"/><use transform="matrix(0.0087890625,0,0,0.0087890625,11.7421875,0)" xlink:href="#ay"/></g><path d="M1216-1011c-1 297-202 441-512 441H361V0H169v-1456h537c297-6 510 164 510 445zm-192 2c1-178-126-288-307-289H361v571h345c196 1 318-92 318-282" id="az"/><path d="M341 0H156v-1536h185V0" id="aA"/><path d="M561-1102c238-4 403 126 403 351v498c0 99 13 178 38 237V0H808c-11-21-19-59-26-114C696-25 593 20 474 20c-199 0-368-130-365-320 4-251 214-359 490-356h180v-85c-1-135-86-212-229-212-115 0-232 67-233 171H131c20-205 206-316 430-320zM294-326c0 117 90 185 207 185 122 0 239-75 278-162v-222H634c-227 0-340 66-340 199" id="aB"/><path d="M456 20C285 20 205-92 206-268v-671H9v-143h197v-262h185v262h202v143H391v671c-9 125 92 149 207 118V0c-49 13-96 20-142 20" id="aC"/><path d="M704-1390c-164-38-297 28-288 194v114h231v143H416V0H231v-939H60v-143h171v-111c-12-274 208-416 483-347" id="aD"/><path d="M584 20C278 26 81-227 91-551c10-320 175-545 491-551 308-5 503 247 494 573-9 322-175 543-492 549zm-2-970c-208 0-305 185-305 421 0 216 106 398 307 398 211 0 307-186 307-420 0-214-109-399-309-399" id="aE"/><path d="M663-916c-163-27-288 18-338 148V0H140v-1082h180l3 125c61-97 147-145 258-145 36 0 63 5 82 14v172" id="aF"/><path d="M1240-945c-141 0-250 95-250 227V0H804v-709c0-157-77-236-231-236-121 0-204 52-249 155V0H139v-1082h175l5 120c79-93 186-140 321-140 151 0 254 58 309 174 69-98 181-174 345-174 237 0 362 126 362 377V0h-185v-714c-2-159-67-231-231-231" id="aG"/><g id="z"><use transform="matrix(0.0087890625,0,0,0.0087890625,0,0)" xlink:href="#az"/><use transform="matrix(0.0087890625,0,0,0.0087890625,11.35546875,0)" xlink:href="#aA"/><use transform="matrix(0.0087890625,0,0,0.0087890625,15.7236328125,0)" xlink:href="#aB"/><use transform="matrix(0.0087890625,0,0,0.0087890625,25.5146484375,0)" xlink:href="#aC"/><use transform="matrix(0.0087890625,0,0,0.0087890625,31.39453125,0)" xlink:href="#aD"/><use transform="matrix(0.0087890625,0,0,0.0087890625,37.6435546875,0)" xlink:href="#aE"/><use transform="matrix(0.0087890625,0,0,0.0087890625,47.9091796875,0)" xlink:href="#aF"/><use transform="matrix(0.0087890625,0,0,0.0087890625,54,0)" xlink:href="#aG"/></g></defs></g></svg>