<svg xmlns="http://www.w3.org/2000/svg" xmlns:xlink="http://www.w3.org/1999/xlink" xmlns:lucid="lucid" width="1542" height="1322"><g transform="translate(961 661)" lucid:page-tab-id="0_0"><path d="M-1000-1000h2000v2000h-2000z" fill="#fff"/><path d="M-940-374a6 6 0 0 1 6-6H214a6 6 0 0 1 6 6V634a6 6 0 0 1-6 6H-934a6 6 0 0 1-6-6z" stroke="#282c33" stroke-width="2" fill="url(#a)"/><path d="M-900-334a6 6 0 0 1 6-6h328a6 6 0 0 1 6 6v148a6 6 0 0 1-6 6h-328a6 6 0 0 1-6-6z" stroke="#282c33" stroke-width="2" fill="#ffbd52"/><use xlink:href="#b" transform="matrix(1,0,0,1,-895,-335) translate(79.29012345679013 78.71527777777777)"/><use xlink:href="#c" transform="matrix(1,0,0,1,-895,-335) translate(165.64814814814815 78.71527777777777)"/><path d="M-900-134a6 6 0 0 1 6-6h828a6 6 0 0 1 6 6v708a6 6 0 0 1-6 6h-828a6 6 0 0 1-6-6z" stroke="#282c33" stroke-width="2" fill="url(#d)"/><path d="M-800-74a6 6 0 0 1 6-6h628a6 6 0 0 1 6 6v68a6 6 0 0 1-6 6h-628a6 6 0 0 1-6-6z" stroke="#282c33" stroke-width="2" fill="#e3fae3"/><use xlink:href="#e" transform="matrix(1,0,0,1,-795,-75) translate(188.64197530864197 39.65277777777778)"/><use xlink:href="#f" transform="matrix(1,0,0,1,-795,-75) translate(273.7654320987654 39.65277777777778)"/><use xlink:href="#g" transform="matrix(1,0,0,1,-795,-75) translate(357.53086419753083 39.65277777777778)"/><path d="M-460 66a6 6 0 0 1 6-6h288a6 6 0 0 1 6 6v448a6 6 0 0 1-6 6h-288a6 6 0 0 1-6-6z" stroke="#282c33" stroke-width="2" fill="#e3fae3"/><use xlink:href="#h" transform="matrix(1,0,0,1,-455,65) translate(68.54938271604938 214.65277777777777)"/><use xlink:href="#i" transform="matrix(1,0,0,1,-455,65) translate(122.74691358024691 214.65277777777777)"/><use xlink:href="#j" transform="matrix(1,0,0,1,-455,65) translate(168.42592592592592 214.65277777777777)"/><use xlink:href="#k" transform="matrix(1,0,0,1,-455,65) translate(103.0864197530864 241.31944444444443)"/><path d="M-900-634a6 6 0 0 1 6-6h208a6 6 0 0 1 6 6v228a6 6 0 0 1-6 6h-208a6 6 0 0 1-6-6z" stroke="#282c33" stroke-width="2" fill="#dfe3e8"/><path d="M0 66a6 6 0 0 1 6-6h158a6 6 0 0 1 6 6v448a6 6 0 0 1-6 6H6a6 6 0 0 1-6-6z" stroke="#282c33" stroke-width="2" fill="#ffbd52"/><use xlink:href="#l" transform="matrix(1,0,0,1,5,65) translate(27.654320987654316 214.65277777777777)"/><use xlink:href="#m" transform="matrix(1,0,0,1,5,65) translate(41.141975308641975 241.31944444444443)"/><path d="M-830 46a6 6 0 0 1 6-6h308a6 6 0 0 1 6 6v268a6 6 0 0 1-6 6h-308a6 6 0 0 1-6-6z" stroke="#282c33" stroke-width="2" fill="#fff7a1"/><path d="M-800 86a6 6 0 0 1 6-6h248a6 6 0 0 1 6 6v68a6 6 0 0 1-6 6h-248a6 6 0 0 1-6-6z" stroke="#282c33" stroke-width="2" fill="#ffe342"/><use xlink:href="#n" transform="matrix(1,0,0,1,-795,85) translate(94.84567901234568 39.65277777777778)"/><path d="M-800 216a6 6 0 0 1 6-6h248a6 6 0 0 1 6 6v68a6 6 0 0 1-6 6h-248a6 6 0 0 1-6-6z" stroke="#282c33" stroke-width="2" fill="#ffe342"/><use xlink:href="#o" transform="matrix(1,0,0,1,-795,215) translate(73.20987654320987 39.65277777777778)"/><path d="M300-354a6 6 0 0 1 6-6h248a6 6 0 0 1 6 6v488a6 6 0 0 1-6 6H306a6 6 0 0 1-6-6z" stroke="#282c33" stroke-width="2" fill="url(#p)"/><path d="M340-294a6 6 0 0 1 6-6h168a6 6 0 0 1 6 6v188a6 6 0 0 1-6 6H346a6 6 0 0 1-6-6z" stroke="#282c33" stroke-width="2" fill="#ff9c9c"/><use xlink:href="#q" transform="matrix(1,0,0,1,345,-295) translate(27.098765432098766 100.90277777777777)"/><use xlink:href="#r" transform="matrix(1,0,0,1,345,-295) translate(112.09876543209876 100.90277777777777)"/><path d="M-544.5-260h434.4a.1.1 0 0 1 .1.1.1.1 0 0 0 .1.1h434.4" stroke="#3a414a" fill="none"/><path d="M-558-260l13-7.5v15zM338-259.8l-13 7.5v-15z" stroke="#3a414a" fill="#3a414a"/><path d="M-544.5-228h58.5a6 6 0 0 1 6 6v126.5" stroke="#3a414a" fill="none"/><path d="M-558-228l13-7.5v15zM-480-82l-7.5-13h15z" stroke="#3a414a" fill="#3a414a"/><path d="M-15.5 290h-129" stroke="#3a414a" fill="none"/><path d="M-2 290l-13 7.5v-15zM-158 290l13-7.5v15z" stroke="#3a414a" fill="#3a414a"/><path d="M-310 44.5v-29" stroke="#3a414a" fill="none"/><path d="M-310 58l-7.5-13h15zM-310 2l7.5 13h-15z" stroke="#3a414a" fill="#3a414a"/><path d="M-670 64.5v-49" stroke="#3a414a" fill="none"/><path d="M-670 78l-7.5-13h15zM-670 2l7.5 13h-15z" stroke="#3a414a" fill="#3a414a"/><path d="M-670 194.5v-19" stroke="#3a414a" fill="none"/><path d="M-670 208l-7.5-13h15zM-670 162l7.5 13h-15z" stroke="#3a414a" fill="#3a414a"/><path d="M-10-240h180v180H-10v-180z" stroke="#fff" stroke-opacity="0" stroke-width="2" fill="#d86613"/><path d="M135.2-90h-29.58c-.96 0-1.72-.48-2.1-1.32L61.64-178.8H43.98c-1.35 0-2.4-1.08-2.4-2.4v-26.4c0-1.32 1.05-2.4 2.4-2.4h36.97c.96 0 1.72.48 2.1 1.32l41.68 87.48h10.47c1.34 0 2.4 1.08 2.4 2.4v26.4c0 1.32-1.06 2.4-2.4 2.4zm-28.04-4.8h25.64v-21.6h-9.6c-.96 0-1.73-.48-2.12-1.32L79.4-205.2H46.4v21.6h16.8c.96 0 1.73.48 2.2 1.32z" stroke="#fff" stroke-opacity="0" stroke-width="2" fill="#fff"/><path d="M55.93-90H24.76c-.85 0-1.6-.44-2.07-1.1-.5-.8-.5-1.68-.12-2.4l32.66-68.2c.38-.87 1.23-1.38 2.13-1.38.95 0 1.75.5 2.18 1.32l15.6 32.15c.38.65.38 1.38 0 2.1L58.12-91.52c-.3.95-1.16 1.53-2.17 1.53zm-27.35-4.82h25.87l15.88-33.55-12.9-26.82z" stroke="#fff" stroke-opacity="0" stroke-width="2" fill="#fff"/><use xlink:href="#s" transform="matrix(1,0,0,1,-40,-51) translate(38.33333333333333 21.333333333333336)"/><use xlink:href="#t" transform="matrix(1,0,0,1,-40,-51) translate(105.44444444444444 21.333333333333336)"/><path d="M-849.85-600h118.05c9.15 0 9.15 0 9.15 10.08v65.76c0 10.08 0 10.08-9.15 10.08h-118.05c-9.15 0-9.15 0-9.15-10.08v-65.76c0-10.08 0-10.08 9.15-10.08z" fill="#29aae1"/><path d="M-849.85-591.6h118.8v66.6h-118.8v-66.6z" fill="#fff"/><path d="M-848.35-589.08h115.8v61.56h-115.8v-61.56z" fill="gray"/><path d="M-865-494.28h149.85V-480H-865v-14.28z" fill="#29aae1"/><path d="M-824.05-510.96h103.65l5.25 16.92H-818.8l-5.25-16.92z" fill="#29aae1"/><path d="M-757.45-510.96h-102.3l-5.25 16.8h102.3l5.25-16.8z" fill="#29aae1"/><path d="M-816.1-507.72h89.7l3.6 11.28h-89.7l-3.6-11.28z" fill="#fff"/><path d="M-779.2-507.72h-75.3l-3 11.28h75.3l3-11.28z" fill="#fff"/><use xlink:href="#u" transform="matrix(1,0,0,1,-895,-480) translate(49.51851851851851 21.333333333333336)"/><use xlink:href="#v" transform="matrix(1,0,0,1,-895,-480) translate(104.33333333333334 21.333333333333336)"/><path d="M362.9-35.7L350-31.07v81.9l12.9 4.66 31.58-45.6-31.58-45.6z" fill="#8c3123"/><path d="M429.97 43.72l-67.1 11.77v-91.2l67.1 11.75L461.7 9.98l-31.73 33.74z" fill="#e05243"/><path d="M430 43.72l67.12 11.77 11.57-44.43L497.1-35.7 430-23.96v67.67z" fill="#8c3123"/><path d="M497.1-35.7l12.88 4.64v81.9l-12.9 4.66v-91.2z" fill="#e05243"/><path d="M400.72 24.98L430 27.7l23.18-17.66-23.2-17.67-29.26 2.65v29.96z" fill="#8c3123"/><path d="M459.25-19.47l-29.27 3.86-29.26-3.87L429.98-60l29.27 40.53z" fill="#5e1f18"/><path d="M459.25 39.46l-29.27-3.9-29.26 3.9L429.98 80l29.27-40.54z" fill="#f2b0a9"/><path d="M459.26-19.46L430-24.7V-60l29.26 10.58v29.96z" fill="#e05243"/><path d="M400.72-19.46l29.26-5.23V-60l-29.26 10.58v29.96z" fill="#8c3123"/><path d="M430 80l29.26-10.6V39.44L430 44.67V80z" fill="#e05243"/><path d="M429.98 80l-29.26-10.6V39.44l29.26 5.23V80z" fill="#8c3123"/><path d="M459.26 24.98L430 27.7V-7.63l29.26 2.65v29.96z" fill="#e05243"/><use xlink:href="#w" transform="matrix(1,0,0,1,350,80) translate(34.30246913580247 19.555555555555557)"/><use xlink:href="#x" transform="matrix(1,0,0,1,350,80) translate(95.82098765432099 19.555555555555557)"/><path d="M-631.97 508.68c4.6-4.13 9-8.26 13.6-12.44 1.4-1.43 3.2-2.9 4.6-4.4-1.2-1.62-3.2-2.84-5-3.5-3.4-1.43-6.8-.97-10 1.02-4.2 2.6-6 6.73-6 11.88.2 2.04.6 3.97 1.6 5.7.4.62.8 1.18 1.2 1.74m5.2 3.93c2.2.82 4.8.72 7 .26 1.2-.5 4.2-1.88 5.2-1.68h.2l.2.1c.6.36 1.2.82 1.6 1.58.8 1.68.4 3.37-1.2 4.34l-.4.35c-5.8 3.57-12 3.06-17.6-.25-2.8-1.58-4.8-3.98-6.4-6.83l-.4-.67c-3.6-6.88-3.2-14.07 1-20.6 1.4-2.24 3.2-4.03 5.4-5.35l1-.5c5.4-3.38 11.2-3.17 16.8-.22 2.8 1.58 5.4 3.93 7 7.04l.2.56c1.4 2.25-.2 4.23-1.8 5.56-2 1.57-3.8 3.46-5.6 5.1-4.2 3.7-8.2 7.48-12.2 11.2zm43.17-31.2h.6c1.8 0 3 1.33 3 3.26 0 2.7-2.4 3.37-4.4 3.37-2.8 0-5.4 1.78-7.2 3.77-2.4 2.45-3.4 5.6-3.4 9.13v15.7c0 1.84-1 3.27-2.8 3.27h-.6c-1.6 0-2.8-1.43-2.8-3.26V500c0-6.36 3-11.6 7.8-15.23 3-2.2 6.2-3.37 9.8-3.37zm-75.55 11.17c2.4-2.5 4.6-5.05 7-7.55.8-.66 3.2-3.62 4.2-3.62h1.2v.05c1.4.3 2.4 1.23 2.4 2.8v.67c0 1.07-1 2.34-1.8 3.1-1.4 1.6-2.8 3.12-4.2 4.65l-7.4 7.95c3.2 3.42 6.4 6.8 9.4 10.2 1 .97 1.8 1.94 2.6 2.86.4.35.8.76 1 1.27.4.4.4.92.4 1.43v.87c-.2 1.48-1.2 2.65-2.6 2.65h-.6c-1 0-2.2-1.23-2.8-1.9-1.4-1.42-2.8-2.95-4.2-4.42l-4.6-4.9v7.85c0 1.8-1 3.27-2.8 3.27h-.4c-1.8 0-2.8-1.48-2.8-3.27v-44.15c0-1.8 1-3.22 2.8-3.22h.4c1.8 0 2.8 1.43 2.8 3.22v20.2zm-19.78-4.4c-.8-.45-2.6-.6-3.6-.65-5-.2-8.6 2.86-10.8 7.65-.8 1.63-1 3.4-1 5.25 0 5.56 2.6 9.43 7.2 11.83 1.8.87 4 1.02 5.8 1.02 1.6 0 4-1.07 5.4-1.78l.2-.17h1.2v.05c1.4.3 2.6 1.23 2.6 2.8v.67c0 3.98-6.8 4.84-9.4 5.05-9.2.66-16-4.7-18.6-13.97-.4-1.58-.6-3.22-.6-4.9v-1.27c0-7.04 3.4-12.65 9-16.22 2.6-1.68 5.4-2.55 8.6-2.55h1.2c3.2 0 6.2 1 8.8 2.95l.2.15.2.26c.2.5.6 1.12.6 1.73v.6c0 1.7-1.2 2.55-2.6 2.86l-.2.05h-.4c-.8-.04-2.8-1-3.8-1.42zm-55.17 12.35c0 4.95 2.2 8.57 6.2 11.17 1.8 1.16 3.8 1.72 6 1.72 4.4 0 7.8-2.5 10.2-6.63 1.2-1.94 1.6-4.14 1.6-6.38 0-4.64-2-8.1-5.6-10.66-2-1.42-4-2.1-6.4-2.1-5 0-8.8 2.77-11 7.6-.6 1.7-1 3.43-1 5.26zm11.4-19.37h.8c7 0 12.4 3.67 15.8 10.25 1.38 2.6 1.98 5.45 1.98 8.46v1.32c0 7.04-3.2 12.65-8.8 16.22-2.6 1.63-5.6 2.5-8.58 2.5h-1.2c-6.6 0-11.8-3.47-15.2-9.54-1.4-2.8-2.2-5.9-2.2-9.18v-1.32c0-7.04 3.2-12.6 8.8-16.22 2.6-1.68 5.6-2.5 8.6-2.5zm-51.17 19.37c0 5.1 2.4 8.93 6.6 11.37 1.6.96 3.4 1.52 5.4 1.52 4.6 0 8-2.34 10.4-6.57 1.2-2 1.6-4.14 1.6-6.43 0-4.44-1.8-7.85-5.2-10.45-2-1.53-4.2-2.3-6.8-2.3-5 0-8.6 2.76-10.8 7.6-.8 1.68-1.2 3.42-1.2 5.25zm24-14.53v-13.73c0-1.83 1.2-3.26 2.78-3.26h.6c1.8 0 2.8 1.44 2.8 3.27v28.92c0 7.02-3.2 12.63-8.98 16.2-2.6 1.63-5.4 2.5-8.6 2.5h-1.2c-6.6 0-11.8-3.47-15-9.54-1.6-2.8-2.38-5.9-2.38-9.18v-1.32c0-7.04 3.2-12.65 9-16.22 2.6-1.68 5.4-2.5 8.38-2.5h1.2c4.6 0 8.4 1.84 11.4 4.85zM-664.7 378.4h18.04v19.57h8.93c4.2 0 8.57-.73 12.43-2.2 1.92-.72 4.2-1.7 6.12-2.9-2.62-3.53-3.85-8.03-4.2-12.4-.52-6.08.53-13.86 4.38-18.47l1.92-2.3 2.1 1.8c5.78 4.87 10.5 11.68 11.2 19.45 6.84-2.18 14.9-1.57 20.84 2.07l2.45 1.58-1.2 2.67c-5.1 10.58-15.77 13.86-26.1 13.25-15.4 41.44-49.2 61-89.98 61-21.18 0-40.62-8.5-51.64-28.55l-.18-.37-1.57-3.52c-3.68-8.87-4.9-18.47-4.2-28.2l.34-2.9h15.24V378.4h17.86v-19.2h35.9V340h21.35v38.4z" stroke="#000" stroke-opacity="0" fill="#394d54"/><path d="M-606.63 385.64c1.18-10-5.88-17.82-10.1-21.6-5.03 6.23-5.87 22.36 2.03 29.24-4.37 4.15-13.62 7.92-23.03 7.92H-752.4c-.85 10.56.84 20.27 4.87 28.56l1.18 2.55c.84 1.52 1.85 2.93 2.86 4.35 4.72.37 8.92.47 12.95.37 7.9-.2 14.13-1.22 19-3 .68-.2 1.52.18 1.85.93.17.75-.17 1.6-.84 1.88-.67.3-1.34.48-2.02.67-3.86 1.13-7.9 1.98-13.28 2.35h-.33c-.17 0-.34 0-.5.1-2.03.1-4.38.1-6.57.1-2.52 0-5.04 0-7.73-.2l-.17.1c9.6 11.5 24.55 18.38 43.2 18.38 39.7 0 73.32-18.85 88.12-61.1 10.6 1.14 20.84-1.78 25.38-11.4-7.4-4.62-16.8-3.1-22.2-.2z" stroke="#000" stroke-opacity="0" fill="#00aada"/><path d="M-606.66 385.62c1.12-9.98-5.87-17.84-10.05-21.57-5.04 6.16-5.88 22.38 1.94 29.2-4.33 4.2-13.54 7.93-22.9 7.93h-107.9c-.43 16.13 5.15 28.46 15.07 35.83 7.82-.15 14.1-1.2 19-3 .7-.23 1.53.18 1.67 1 .28.72 0 1.53-.84 1.85-.56.24-1.26.4-1.95.65-3.77 1.13-8.24 2.03-13.55 2.43l-.13-.16c13.54 7.46 33.08 7.38 55.56-1.87 25.13-10.3 48.44-30.07 64.78-52.6-.28.07-.42.23-.7.32z" stroke="#000" stroke-opacity="0" fill="#24b8eb"/><path d="M-752.12 414c.68 5.63 2.3 10.94 4.6 15.77l1.2 2.53c.8 1.5 1.75 2.97 2.7 4.35 4.72.35 9.16.44 13.08.35 7.8-.18 14.15-1.15 19-2.97.68-.26 1.5.13 1.76.93.27.75-.14 1.6-.8 1.86-.7.27-1.36.5-2.03.67-3.8 1.2-8.24 1.98-13.5 2.34-.13.04-.54.04-.67.04-2.02.13-4.32.18-6.6.18-2.43 0-5-.05-7.83-.18 9.58 11.53 24.68 18.44 43.42 18.44 33.83 0 63.36-13.83 80.48-44.32h-134.82z" stroke="#000" stroke-opacity="0" fill="#008bb8"/><path d="M-744.5 414c2 9.9 6.93 17.7 14 23 7.72-.16 14.1-1.16 18.92-2.97.8-.25 1.57.16 1.8.9.22.78-.12 1.63-.8 1.9-.66.23-1.33.47-2 .66-3.82 1.18-8.4 2.02-13.67 2.36 13.55 7.4 33.04 7.3 55.45-1.93 13.55-5.58 26.54-13.9 38.3-23.93h-112z" stroke="#000" stroke-opacity="0" fill="#039bc6"/><path d="M-723.78 382.95h1.22v13.87h-1.22v-13.87zm-2.36 0h1.27v13.87h-1.27v-13.87zm-2.34 0h1.27v13.87h-1.28v-13.87zm-2.36 0h1.28v13.87h-1.28v-13.87zm-2.35 0h1.3v13.87h-1.3v-13.87zm-2.28 0h1.22v13.87h-1.23v-13.87zm-1.3-1.38h15.5v16.63h-15.5v-16.63zM-705.9 363.76h1.23v13.87h-1.23v-13.87zm-2.35 0h1.27v13.87h-1.27v-13.87zm-2.34 0h1.28v13.87h-1.27v-13.87zm-2.35 0h1.27v13.87h-1.27v-13.87zm-2.34 0h1.28v13.87h-1.27v-13.87zm-2.3 0h1.22v13.87h-1.22v-13.87zm-1.3-1.38h15.52V379h-15.5V362.4z" stroke="#000" stroke-opacity="0" fill="#00acd3"/><path d="M-705.9 382.95h1.23v13.87h-1.23v-13.87zm-2.35 0h1.27v13.87h-1.27v-13.87zm-2.34 0h1.28v13.87h-1.27v-13.87zm-2.35 0h1.27v13.87h-1.27v-13.87zm-2.34 0h1.28v13.87h-1.27v-13.87zm-2.3 0h1.22v13.87h-1.22v-13.87zm-1.3-1.38h15.52v16.63h-15.5v-16.63z" stroke="#000" stroke-opacity="0" fill="#20c2ef"/><path d="M-688 382.95h1.22v13.87H-688v-13.87zm-2.36 0h1.27v13.87h-1.26v-13.87zm-2.35 0h1.27v13.87h-1.28v-13.87zm-2.36 0h1.27v13.87h-1.26v-13.87zm-2.34 0h1.27v13.87h-1.27v-13.87zm-2.3 0h1.2v13.87h-1.2v-13.87zm-1.3-1.38h15.5v16.63H-701v-16.63z" stroke="#000" stroke-opacity="0" fill="#00acd3"/><path d="M-688 363.76h1.22v13.87H-688v-13.87zm-2.36 0h1.27v13.87h-1.26v-13.87zm-2.35 0h1.27v13.87h-1.28v-13.87zm-2.36 0h1.27v13.87h-1.26v-13.87zm-2.34 0h1.27v13.87h-1.27v-13.87zm-2.3 0h1.2v13.87h-1.2v-13.87zm-1.3-1.38h15.5V379H-701V362.4zM-670.12 382.95h1.22v13.87h-1.22v-13.87zm-2.36 0h1.27v13.87h-1.28v-13.87zm-2.34 0h1.27v13.87h-1.27v-13.87zm-2.36 0h1.27v13.87h-1.28v-13.87zm-2.34 0h1.27v13.87h-1.27v-13.87zm-2.3 0h1.22v13.87h-1.23v-13.87zm-1.3-1.38h15.5v16.63h-15.5v-16.63z" stroke="#000" stroke-opacity="0" fill="#20c2ef"/><path d="M-670.12 363.76h1.22v13.87h-1.22v-13.87zm-2.36 0h1.27v13.87h-1.28v-13.87zm-2.34 0h1.27v13.87h-1.27v-13.87zm-2.36 0h1.27v13.87h-1.28v-13.87zm-2.34 0h1.27v13.87h-1.27v-13.87zm-2.3 0h1.22v13.87h-1.23v-13.87zm-1.3-1.38h15.5V379h-15.5V362.4z" stroke="#000" stroke-opacity="0" fill="#00acd3"/><path d="M-670.12 344.58h1.22v13.87h-1.22v-13.87zm-2.36 0h1.27v13.87h-1.28v-13.87zm-2.34 0h1.27v13.87h-1.27v-13.87zm-2.36 0h1.27v13.87h-1.28v-13.87zm-2.34 0h1.27v13.87h-1.27v-13.87zm-2.3 0h1.22v13.87h-1.23v-13.87zm-1.3-1.38h15.5v16.63h-15.5V343.2z" stroke="#000" stroke-opacity="0" fill="#20c2ef"/><path d="M-652.24 382.95h1.23v13.87h-1.24v-13.87zm-2.35 0h1.28v13.87h-1.27v-13.87zm-2.33 0h1.27v13.87h-1.27v-13.87zm-2.36 0h1.28v13.87h-1.27v-13.87zm-2.33 0h1.27v13.87h-1.27v-13.87zm-2.3 0h1.2v13.87h-1.2v-13.87zm-1.3-1.38h15.5v16.63h-15.5v-16.63z" stroke="#000" stroke-opacity="0" fill="#00acd3"/><path d="M-704.36 425.17c2.36 0 4.28 2.05 4.28 4.58 0 2.53-1.92 4.6-4.28 4.6-2.36 0-4.27-2.07-4.27-4.6s1.9-4.58 4.27-4.58" stroke="#000" stroke-opacity="0" fill="#d4edf1"/><path d="M-704.36 426.46c.4 0 .77.08 1.1.23-.36.22-.6.65-.6 1.15 0 .75.55 1.34 1.24 1.34.47 0 .9-.3 1.1-.7.14.38.23.8.23 1.25 0 1.82-1.37 3.3-3.06 3.3-1.7 0-3.06-1.48-3.06-3.3 0-1.8 1.37-3.3 3.06-3.3M-780 415.66h198.94c-4.37-1.18-13.72-2.78-12.13-8.87-7.95 9.78-26.85 6.85-31.62 2.03-5.38 8.3-36.4 5.15-38.6-1.32-6.76 8.44-27.45 8.44-34.22 0-2.2 6.48-33.22 9.64-38.6 1.33-4.77 4.82-23.67 7.75-31.62-2.03 1.6 6.1-7.76 7.68-12.14 8.86" stroke="#000" stroke-opacity="0" fill="#394d54"/><path d="M-693 458.22c-10.6-5.4-16.38-12.72-19.64-20.72-3.94 1.2-8.66 1.98-14.16 2.3-2.05.14-4.23.2-6.52.2-2.63 0-5.4-.08-8.32-.25 9.73 10.4 21.65 18.43 43.8 18.57 1.6 0 3.25-.02 4.85-.1z" stroke="#000" stroke-opacity="0" fill="#bfdbe0"/><path d="M-708.7 444.9c-1.46-2.15-2.9-4.83-3.92-7.4-3.94 1.2-8.66 1.97-14.16 2.3 3.78 2.2 9.17 4.25 18.1 5.1z" stroke="#000" stroke-opacity="0" fill="#d4edf1"/><use xlink:href="#y" transform="matrix(1,0,0,1,-810,529) translate(9.228395061728378 24.888888888888893)"/><use xlink:href="#z" transform="matrix(1,0,0,1,-810,529) translate(116.21604938271604 24.888888888888893)"/><path d="M-220.03-502.06v11.08c0 20.15-23.65 40.96-52.5 40.96h-154.94c-28.85 0-52.5-20.8-52.5-40.96v-11.08z" fill="#7d7c7c"/><path d="M-379.9-610c26.77 0 49.38 13.76 60.56 36.6 15.34-9.83 36.4-6.2 46.8 8.32 3.9 5.14 5.72 10.44 5.98 16.64 26.26 2.12 46.53 25.86 46.53 44.77v4.08c0 20.28-23.65 40.85-52.5 40.85H-427.5c-28.84 0-52.5-20.57-52.5-40.84v-4.07c0-15.73 14.04-37.2 33.54-42.5V-548c.26-34.32 29.9-62.15 66.55-62z" fill="#d2d3d3"/><path d="M-324.77-478.43c-2.02 0-3.78-.7-5.22-2.04-11.08-10.4-28.95-10.4-40.04 0-2.87 2.7-7.57 2.7-10.44 0-2.87-2.73-2.87-7.12 0-9.83 16.83-15.82 44.1-15.82 60.93 0 2.87 2.7 2.87 7.12 0 9.8-1.43 1.36-3.2 2.02-5.22 2.04z" fill="#fff"/><path d="M-304.68-497.28c-2.1-.03-3.77-.7-5.24-2.05-22.2-20.78-58.03-20.78-80.14 0-3.14 2.4-7.85 1.93-10.37-1.07-2.2-2.55-2.2-6.04-.1-8.62 27.97-26.2 73.12-26.2 101.08 0 2.83 2.74 2.83 7.1-.1 9.82-1.36 1.32-3.14 2.02-5.13 2.02z" fill="#fff"/><path d="M-283.07-515.97c-2.1 0-3.72-.68-5.2-2.04-34.06-32.07-89.37-32.07-123.43 0-2.97 2.7-7.58 2.7-10.4 0-2.98-2.73-2.98-7.12 0-9.84 39.85-37.47 104.38-37.47 144.23 0 2.97 2.72 2.97 7.1.15 9.83-1.5 1.35-3.27 2.03-5.35 2.03z" fill="#fff"/><g><use xlink:href="#A" transform="matrix(1,0,0,1,-480,-450) translate(77.32716049382717 24.888888888888893)"/></g><path d="M-664.5-520h174.2" stroke="#3a414a" fill="none"/><path d="M-678-520l13-7.5v15zM-476.82-520l-13 7.5v-15z" stroke="#3a414a" fill="#3a414a"/><path d="M-210-520h19.5a6 6 0 0 1 6 6v209.33a6 6 0 0 1-6 6h-354" stroke="#3a414a" fill="none"/><path d="M-223.5-520l13-7.5v15zM-558-298.67l13-7.5v15z" stroke="#3a414a" fill="#3a414a"/><defs><linearGradient gradientUnits="userSpaceOnUse" id="a" x1="-940" y1="-380" x2="-940" y2="640"><stop offset="18.57%" stop-color="#ffdda6"/><stop offset="65.36%" stop-color="#fc9432"/><stop offset="91.43%" stop-color="#e87203"/></linearGradient><path fill="#3a414a" d="M30 0v-248h33v221h125V0H30" id="B"/><path fill="#3a414a" d="M141-36C126-15 110 5 73 4 37 3 15-17 15-53c-1-64 63-63 125-63 3-35-9-54-41-54-24 1-41 7-42 31l-33-3c5-37 33-52 76-52 45 0 72 20 72 64v82c-1 20 7 32 28 27v20c-31 9-61-2-59-35zM48-53c0 20 12 33 32 33 41-3 63-29 60-74-43 2-92-5-92 41" id="C"/><path fill="#3a414a" d="M210-169c-67 3-38 105-44 169h-31v-121c0-29-5-50-35-48C34-165 62-65 56 0H25l-1-190h30c1 10-1 24 2 32 10-44 99-50 107 0 11-21 27-35 58-36 85-2 47 119 55 194h-31v-121c0-29-5-49-35-48" id="D"/><path fill="#3a414a" d="M115-194c53 0 69 39 70 98 0 66-23 100-70 100C84 3 66-7 56-30L54 0H23l1-261h32v101c10-23 28-34 59-34zm-8 174c40 0 45-34 45-75 0-40-5-75-45-74-42 0-51 32-51 76 0 43 10 73 51 73" id="E"/><path fill="#3a414a" d="M85-194c31 0 48 13 60 33l-1-100h32l1 261h-30c-2-10 0-23-3-31C134-8 116 4 85 4 32 4 16-35 15-94c0-66 23-100 70-100zm9 24c-40 0-46 34-46 75 0 40 6 74 45 74 42 0 51-32 51-76 0-42-9-74-50-73" id="F"/><g id="b"><use transform="matrix(0.06172839506172839,0,0,0.06172839506172839,0,0)" xlink:href="#B"/><use transform="matrix(0.06172839506172839,0,0,0.06172839506172839,12.345679012345679,0)" xlink:href="#C"/><use transform="matrix(0.06172839506172839,0,0,0.06172839506172839,24.691358024691358,0)" xlink:href="#D"/><use transform="matrix(0.06172839506172839,0,0,0.06172839506172839,43.148148148148145,0)" xlink:href="#E"/><use transform="matrix(0.06172839506172839,0,0,0.06172839506172839,55.49382716049382,0)" xlink:href="#F"/><use transform="matrix(0.06172839506172839,0,0,0.06172839506172839,67.8395061728395,0)" xlink:href="#C"/></g><path fill="#3a414a" d="M63-220v92h138v28H63V0H30v-248h175v28H63" id="G"/><path fill="#3a414a" d="M84 4C-5 8 30-112 23-190h32v120c0 31 7 50 39 49 72-2 45-101 50-169h31l1 190h-30c-1-10 1-25-2-33-11 22-28 36-60 37" id="H"/><path fill="#3a414a" d="M117-194c89-4 53 116 60 194h-32v-121c0-31-8-49-39-48C34-167 62-67 57 0H25l-1-190h30c1 10-1 24 2 32 11-22 29-35 61-36" id="I"/><path fill="#3a414a" d="M96-169c-40 0-48 33-48 73s9 75 48 75c24 0 41-14 43-38l32 2c-6 37-31 61-74 61-59 0-76-41-82-99-10-93 101-131 147-64 4 7 5 14 7 22l-32 3c-4-21-16-35-41-35" id="J"/><path fill="#3a414a" d="M59-47c-2 24 18 29 38 22v24C64 9 27 4 27-40v-127H5v-23h24l9-43h21v43h35v23H59v120" id="K"/><path fill="#3a414a" d="M24-231v-30h32v30H24zM24 0v-190h32V0H24" id="L"/><path fill="#3a414a" d="M100-194c62-1 85 37 85 99 1 63-27 99-86 99S16-35 15-95c0-66 28-99 85-99zM99-20c44 1 53-31 53-75 0-43-8-75-51-75s-53 32-53 75 10 74 51 75" id="M"/><g id="c"><use transform="matrix(0.06172839506172839,0,0,0.06172839506172839,0,0)" xlink:href="#G"/><use transform="matrix(0.06172839506172839,0,0,0.06172839506172839,13.518518518518517,0)" xlink:href="#H"/><use transform="matrix(0.06172839506172839,0,0,0.06172839506172839,25.864197530864196,0)" xlink:href="#I"/><use transform="matrix(0.06172839506172839,0,0,0.06172839506172839,38.20987654320987,0)" xlink:href="#J"/><use transform="matrix(0.06172839506172839,0,0,0.06172839506172839,49.32098765432099,0)" xlink:href="#K"/><use transform="matrix(0.06172839506172839,0,0,0.06172839506172839,55.49382716049383,0)" xlink:href="#L"/><use transform="matrix(0.06172839506172839,0,0,0.06172839506172839,60.370370370370374,0)" xlink:href="#M"/><use transform="matrix(0.06172839506172839,0,0,0.06172839506172839,72.71604938271605,0)" xlink:href="#I"/></g><linearGradient gradientUnits="userSpaceOnUse" id="d" x1="-900" y1="-140" x2="-900" y2="580"><stop offset="0%" stop-color="#fff"/><stop offset="50.55%" stop-color="#cfe4ff"/><stop offset="100%" stop-color="#8abdff"/></linearGradient><path fill="#3a414a" d="M135-143c-3-34-86-38-87 0 15 53 115 12 119 90S17 21 10-45l28-5c4 36 97 45 98 0-10-56-113-15-118-90-4-57 82-63 122-42 12 7 21 19 24 35" id="N"/><path fill="#3a414a" d="M205 0l-28-72H64L36 0H1l101-248h38L239 0h-34zm-38-99l-47-123c-12 45-31 82-46 123h93" id="O"/><path fill="#3a414a" d="M30-248c87 1 191-15 191 75 0 78-77 80-158 76V0H30v-248zm33 125c57 0 124 11 124-50 0-59-68-47-124-48v98" id="P"/><path fill="#3a414a" d="M33 0v-248h34V0H33" id="Q"/><g id="e"><use transform="matrix(0.06172839506172839,0,0,0.06172839506172839,0,0)" xlink:href="#G"/><use transform="matrix(0.06172839506172839,0,0,0.06172839506172839,13.518518518518517,0)" xlink:href="#C"/><use transform="matrix(0.06172839506172839,0,0,0.06172839506172839,25.864197530864196,0)" xlink:href="#N"/><use transform="matrix(0.06172839506172839,0,0,0.06172839506172839,36.9753086419753,0)" xlink:href="#K"/><use transform="matrix(0.06172839506172839,0,0,0.06172839506172839,43.148148148148145,0)" xlink:href="#O"/><use transform="matrix(0.06172839506172839,0,0,0.06172839506172839,57.96296296296296,0)" xlink:href="#P"/><use transform="matrix(0.06172839506172839,0,0,0.06172839506172839,72.77777777777777,0)" xlink:href="#Q"/></g><path fill="#3a414a" d="M197 0v-115H63V0H30v-248h33v105h134v-105h34V0h-34" id="R"/><path fill="#3a414a" d="M24 0v-261h32V0H24" id="S"/><path fill="#3a414a" d="M100-194c63 0 86 42 84 106H49c0 40 14 67 53 68 26 1 43-12 49-29l28 8c-11 28-37 45-77 45C44 4 14-33 15-96c1-61 26-98 85-98zm52 81c6-60-76-77-97-28-3 7-6 17-6 28h103" id="T"/><path fill="#3a414a" d="M114-163C36-179 61-72 57 0H25l-1-190h30c1 12-1 29 2 39 6-27 23-49 58-41v29" id="U"/><g id="f"><use transform="matrix(0.06172839506172839,0,0,0.06172839506172839,0,0)" xlink:href="#R"/><use transform="matrix(0.06172839506172839,0,0,0.06172839506172839,15.987654320987653,0)" xlink:href="#C"/><use transform="matrix(0.06172839506172839,0,0,0.06172839506172839,28.333333333333332,0)" xlink:href="#I"/><use transform="matrix(0.06172839506172839,0,0,0.06172839506172839,40.67901234567901,0)" xlink:href="#F"/><use transform="matrix(0.06172839506172839,0,0,0.06172839506172839,53.02469135802469,0)" xlink:href="#S"/><use transform="matrix(0.06172839506172839,0,0,0.06172839506172839,57.901234567901234,0)" xlink:href="#T"/><use transform="matrix(0.06172839506172839,0,0,0.06172839506172839,70.24691358024691,0)" xlink:href="#U"/></g><path fill="#3a414a" d="M87 75C49 33 22-17 22-94c0-76 28-126 65-167h31c-38 41-64 92-64 168S80 34 118 75H87" id="V"/><path fill="#3a414a" d="M179-190L93 31C79 59 56 82 12 73V49c39 6 53-20 64-50L1-190h34L92-34l54-156h33" id="W"/><path fill="#3a414a" d="M106-169C34-169 62-67 57 0H25v-261h32l-1 103c12-21 28-36 61-36 89 0 53 116 60 194h-32v-121c2-32-8-49-39-48" id="X"/><path fill="#3a414a" d="M33-261c38 41 65 92 65 168S71 34 33 75H2C39 34 66-17 66-93S39-220 2-261h31" id="Y"/><g id="g"><use transform="matrix(0.06172839506172839,0,0,0.06172839506172839,0,0)" xlink:href="#V"/><use transform="matrix(0.06172839506172839,0,0,0.06172839506172839,7.345679012345679,0)" xlink:href="#P"/><use transform="matrix(0.06172839506172839,0,0,0.06172839506172839,22.160493827160494,0)" xlink:href="#W"/><use transform="matrix(0.06172839506172839,0,0,0.06172839506172839,33.27160493827161,0)" xlink:href="#K"/><use transform="matrix(0.06172839506172839,0,0,0.06172839506172839,39.44444444444445,0)" xlink:href="#X"/><use transform="matrix(0.06172839506172839,0,0,0.06172839506172839,51.79012345679013,0)" xlink:href="#M"/><use transform="matrix(0.06172839506172839,0,0,0.06172839506172839,64.13580246913581,0)" xlink:href="#I"/><use transform="matrix(0.06172839506172839,0,0,0.06172839506172839,76.4814814814815,0)" xlink:href="#Y"/></g><path fill="#3a414a" d="M240 0l2-218c-23 76-54 145-80 218h-23L58-218 59 0H30v-248h44l77 211c21-75 51-140 76-211h43V0h-30" id="Z"/><g id="h"><use transform="matrix(0.06172839506172839,0,0,0.06172839506172839,0,0)" xlink:href="#Z"/><use transform="matrix(0.06172839506172839,0,0,0.06172839506172839,18.456790123456788,0)" xlink:href="#C"/><use transform="matrix(0.06172839506172839,0,0,0.06172839506172839,30.80246913580247,0)" xlink:href="#L"/><use transform="matrix(0.06172839506172839,0,0,0.06172839506172839,35.67901234567901,0)" xlink:href="#I"/></g><path fill="#3a414a" d="M115-194c55 1 70 41 70 98S169 2 115 4C84 4 66-9 55-30l1 105H24l-1-265h31l2 30c10-21 28-34 59-34zm-8 174c40 0 45-34 45-75s-6-73-45-74c-42 0-51 32-51 76 0 43 10 73 51 73" id="aa"/><g id="i"><use transform="matrix(0.06172839506172839,0,0,0.06172839506172839,0,0)" xlink:href="#O"/><use transform="matrix(0.06172839506172839,0,0,0.06172839506172839,14.814814814814813,0)" xlink:href="#aa"/><use transform="matrix(0.06172839506172839,0,0,0.06172839506172839,27.160493827160494,0)" xlink:href="#aa"/></g><path fill="#3a414a" d="M177-190C167-65 218 103 67 71c-23-6-38-20-44-43l32-5c15 47 100 32 89-28v-30C133-14 115 1 83 1 29 1 15-40 15-95c0-56 16-97 71-98 29-1 48 16 59 35 1-10 0-23 2-32h30zM94-22c36 0 50-32 50-73 0-42-14-75-50-75-39 0-46 34-46 75s6 73 46 73" id="ab"/><g id="j"><use transform="matrix(0.06172839506172839,0,0,0.06172839506172839,0,0)" xlink:href="#B"/><use transform="matrix(0.06172839506172839,0,0,0.06172839506172839,12.345679012345679,0)" xlink:href="#M"/><use transform="matrix(0.06172839506172839,0,0,0.06172839506172839,24.691358024691358,0)" xlink:href="#ab"/><use transform="matrix(0.06172839506172839,0,0,0.06172839506172839,37.03703703703704,0)" xlink:href="#L"/><use transform="matrix(0.06172839506172839,0,0,0.06172839506172839,41.91358024691358,0)" xlink:href="#J"/></g><g id="k"><use transform="matrix(0.06172839506172839,0,0,0.06172839506172839,0,0)" xlink:href="#V"/><use transform="matrix(0.06172839506172839,0,0,0.06172839506172839,7.345679012345679,0)" xlink:href="#P"/><use transform="matrix(0.06172839506172839,0,0,0.06172839506172839,22.160493827160494,0)" xlink:href="#W"/><use transform="matrix(0.06172839506172839,0,0,0.06172839506172839,33.27160493827161,0)" xlink:href="#K"/><use transform="matrix(0.06172839506172839,0,0,0.06172839506172839,39.44444444444445,0)" xlink:href="#X"/><use transform="matrix(0.06172839506172839,0,0,0.06172839506172839,51.79012345679013,0)" xlink:href="#M"/><use transform="matrix(0.06172839506172839,0,0,0.06172839506172839,64.13580246913581,0)" xlink:href="#I"/><use transform="matrix(0.06172839506172839,0,0,0.06172839506172839,76.4814814814815,0)" xlink:href="#Y"/></g><path fill="#3a414a" d="M127-220V0H93v-220H8v-28h204v28h-85" id="ac"/><g id="l"><use transform="matrix(0.06172839506172839,0,0,0.06172839506172839,0,0)" xlink:href="#ac"/><use transform="matrix(0.06172839506172839,0,0,0.06172839506172839,11.049382716049381,0)" xlink:href="#T"/><use transform="matrix(0.06172839506172839,0,0,0.06172839506172839,23.39506172839506,0)" xlink:href="#D"/><use transform="matrix(0.06172839506172839,0,0,0.06172839506172839,41.85185185185185,0)" xlink:href="#aa"/><use transform="matrix(0.06172839506172839,0,0,0.06172839506172839,54.197530864197525,0)" xlink:href="#M"/><use transform="matrix(0.06172839506172839,0,0,0.06172839506172839,66.5432098765432,0)" xlink:href="#U"/><use transform="matrix(0.06172839506172839,0,0,0.06172839506172839,73.88888888888889,0)" xlink:href="#C"/><use transform="matrix(0.06172839506172839,0,0,0.06172839506172839,86.23456790123457,0)" xlink:href="#U"/><use transform="matrix(0.06172839506172839,0,0,0.06172839506172839,93.58024691358025,0)" xlink:href="#W"/></g><path fill="#3a414a" d="M185-189c-5-48-123-54-124 2 14 75 158 14 163 119 3 78-121 87-175 55-17-10-28-26-33-46l33-7c5 56 141 63 141-1 0-78-155-14-162-118-5-82 145-84 179-34 5 7 8 16 11 25" id="ad"/><g id="m"><use transform="matrix(0.06172839506172839,0,0,0.06172839506172839,0,0)" xlink:href="#ad"/><use transform="matrix(0.06172839506172839,0,0,0.06172839506172839,14.814814814814813,0)" xlink:href="#K"/><use transform="matrix(0.06172839506172839,0,0,0.06172839506172839,20.98765432098765,0)" xlink:href="#M"/><use transform="matrix(0.06172839506172839,0,0,0.06172839506172839,33.33333333333333,0)" xlink:href="#U"/><use transform="matrix(0.06172839506172839,0,0,0.06172839506172839,40.679012345679006,0)" xlink:href="#C"/><use transform="matrix(0.06172839506172839,0,0,0.06172839506172839,53.02469135802468,0)" xlink:href="#ab"/><use transform="matrix(0.06172839506172839,0,0,0.06172839506172839,65.37037037037037,0)" xlink:href="#T"/></g><g id="n"><use transform="matrix(0.06172839506172839,0,0,0.06172839506172839,0,0)" xlink:href="#R"/><use transform="matrix(0.06172839506172839,0,0,0.06172839506172839,15.987654320987653,0)" xlink:href="#ac"/><use transform="matrix(0.06172839506172839,0,0,0.06172839506172839,29.50617283950617,0)" xlink:href="#Z"/><use transform="matrix(0.06172839506172839,0,0,0.06172839506172839,47.96296296296296,0)" xlink:href="#B"/></g><path fill="#3a414a" d="M153-248C145-148 188 4 80 4 36 3 13-21 6-62l32-5c4 25 16 42 43 43 27 0 39-20 39-49v-147H72v-28h81" id="ae"/><path fill="#3a414a" d="M108 0H70L1-190h34L89-25l56-165h34" id="af"/><g id="o"><use transform="matrix(0.06172839506172839,0,0,0.06172839506172839,0,0)" xlink:href="#ae"/><use transform="matrix(0.06172839506172839,0,0,0.06172839506172839,11.11111111111111,0)" xlink:href="#C"/><use transform="matrix(0.06172839506172839,0,0,0.06172839506172839,23.45679012345679,0)" xlink:href="#af"/><use transform="matrix(0.06172839506172839,0,0,0.06172839506172839,34.5679012345679,0)" xlink:href="#C"/><use transform="matrix(0.06172839506172839,0,0,0.06172839506172839,46.913580246913575,0)" xlink:href="#ad"/><use transform="matrix(0.06172839506172839,0,0,0.06172839506172839,61.72839506172839,0)" xlink:href="#J"/><use transform="matrix(0.06172839506172839,0,0,0.06172839506172839,72.8395061728395,0)" xlink:href="#U"/><use transform="matrix(0.06172839506172839,0,0,0.06172839506172839,80.18518518518519,0)" xlink:href="#L"/><use transform="matrix(0.06172839506172839,0,0,0.06172839506172839,85.06172839506173,0)" xlink:href="#aa"/><use transform="matrix(0.06172839506172839,0,0,0.06172839506172839,97.40740740740742,0)" xlink:href="#K"/></g><linearGradient gradientUnits="userSpaceOnUse" id="p" x1="300" y1="-360" x2="300" y2="140"><stop offset="0%" stop-color="#fff"/><stop offset="47.7%" stop-color="#ffd9d9"/><stop offset="100%" stop-color="#fe7070"/></linearGradient><path fill="#3a414a" d="M212-179c-10-28-35-45-73-45-59 0-87 40-87 99 0 60 29 101 89 101 43 0 62-24 78-52l27 14C228-24 195 4 139 4 59 4 22-46 18-125c-6-104 99-153 187-111 19 9 31 26 39 46" id="ag"/><g id="q"><use transform="matrix(0.06172839506172839,0,0,0.06172839506172839,0,0)" xlink:href="#ag"/><use transform="matrix(0.06172839506172839,0,0,0.06172839506172839,15.987654320987653,0)" xlink:href="#X"/><use transform="matrix(0.06172839506172839,0,0,0.06172839506172839,28.333333333333332,0)" xlink:href="#U"/><use transform="matrix(0.06172839506172839,0,0,0.06172839506172839,35.67901234567901,0)" xlink:href="#M"/><use transform="matrix(0.06172839506172839,0,0,0.06172839506172839,48.02469135802469,0)" xlink:href="#D"/><use transform="matrix(0.06172839506172839,0,0,0.06172839506172839,66.48148148148148,0)" xlink:href="#C"/></g><path fill="#3a414a" d="M30-248c118-7 216 8 213 122C240-48 200 0 122 0H30v-248zM63-27c89 8 146-16 146-99s-60-101-146-95v194" id="ah"/><path fill="#3a414a" d="M160-131c35 5 61 23 61 61C221 17 115-2 30 0v-248c76 3 177-17 177 60 0 33-19 50-47 57zm-97-11c50-1 110 9 110-42 0-47-63-36-110-37v79zm0 115c55-2 124 14 124-45 0-56-70-42-124-44v89" id="ai"/><g id="r"><use transform="matrix(0.06172839506172839,0,0,0.06172839506172839,0,0)" xlink:href="#ah"/><use transform="matrix(0.06172839506172839,0,0,0.06172839506172839,15.987654320987653,0)" xlink:href="#ai"/></g><path d="M205 0l-28-72H64L36 0H1l101-248h38L239 0h-34zm-38-99l-47-123c-12 45-31 82-46 123h93" id="aj"/><path d="M266 0h-40l-56-210L115 0H75L2-248h35L96-30l15-64 43-154h32l59 218 59-218h35" id="ak"/><path d="M185-189c-5-48-123-54-124 2 14 75 158 14 163 119 3 78-121 87-175 55-17-10-28-26-33-46l33-7c5 56 141 63 141-1 0-78-155-14-162-118-5-82 145-84 179-34 5 7 8 16 11 25" id="al"/><g id="s"><use transform="matrix(0.07407407407407408,0,0,0.07407407407407408,0,0)" xlink:href="#aj"/><use transform="matrix(0.07407407407407408,0,0,0.07407407407407408,16.814814814814817,0)" xlink:href="#ak"/><use transform="matrix(0.07407407407407408,0,0,0.07407407407407408,41.92592592592593,0)" xlink:href="#al"/></g><path d="M30 0v-248h33v221h125V0H30" id="am"/><path d="M141-36C126-15 110 5 73 4 37 3 15-17 15-53c-1-64 63-63 125-63 3-35-9-54-41-54-24 1-41 7-42 31l-33-3c5-37 33-52 76-52 45 0 72 20 72 64v82c-1 20 7 32 28 27v20c-31 9-61-2-59-35zM48-53c0 20 12 33 32 33 41-3 63-29 60-74-43 2-92-5-92 41" id="an"/><path d="M210-169c-67 3-38 105-44 169h-31v-121c0-29-5-50-35-48C34-165 62-65 56 0H25l-1-190h30c1 10-1 24 2 32 10-44 99-50 107 0 11-21 27-35 58-36 85-2 47 119 55 194h-31v-121c0-29-5-49-35-48" id="ao"/><path d="M115-194c53 0 69 39 70 98 0 66-23 100-70 100C84 3 66-7 56-30L54 0H23l1-261h32v101c10-23 28-34 59-34zm-8 174c40 0 45-34 45-75 0-40-5-75-45-74-42 0-51 32-51 76 0 43 10 73 51 73" id="ap"/><path d="M85-194c31 0 48 13 60 33l-1-100h32l1 261h-30c-2-10 0-23-3-31C134-8 116 4 85 4 32 4 16-35 15-94c0-66 23-100 70-100zm9 24c-40 0-46 34-46 75 0 40 6 74 45 74 42 0 51-32 51-76 0-42-9-74-50-73" id="aq"/><g id="t"><use transform="matrix(0.07407407407407408,0,0,0.07407407407407408,0,0)" xlink:href="#am"/><use transform="matrix(0.07407407407407408,0,0,0.07407407407407408,14.814814814814817,0)" xlink:href="#an"/><use transform="matrix(0.07407407407407408,0,0,0.07407407407407408,29.629629629629633,0)" xlink:href="#ao"/><use transform="matrix(0.07407407407407408,0,0,0.07407407407407408,51.777777777777786,0)" xlink:href="#ap"/><use transform="matrix(0.07407407407407408,0,0,0.07407407407407408,66.59259259259261,0)" xlink:href="#aq"/><use transform="matrix(0.07407407407407408,0,0,0.07407407407407408,81.40740740740742,0)" xlink:href="#an"/></g><path d="M30 0v-248h187v28H63v79h144v27H63v87h162V0H30" id="ar"/><path d="M117-194c89-4 53 116 60 194h-32v-121c0-31-8-49-39-48C34-167 62-67 57 0H25l-1-190h30c1 10-1 24 2 32 11-22 29-35 61-36" id="as"/><g id="u"><use transform="matrix(0.07407407407407408,0,0,0.07407407407407408,0,0)" xlink:href="#ar"/><use transform="matrix(0.07407407407407408,0,0,0.07407407407407408,17.77777777777778,0)" xlink:href="#as"/><use transform="matrix(0.07407407407407408,0,0,0.07407407407407408,32.592592592592595,0)" xlink:href="#aq"/></g><path d="M232-93c-1 65-40 97-104 97C67 4 28-28 28-90v-158h33c8 89-33 224 67 224 102 0 64-133 71-224h33v155" id="at"/><path d="M135-143c-3-34-86-38-87 0 15 53 115 12 119 90S17 21 10-45l28-5c4 36 97 45 98 0-10-56-113-15-118-90-4-57 82-63 122-42 12 7 21 19 24 35" id="au"/><path d="M100-194c63 0 86 42 84 106H49c0 40 14 67 53 68 26 1 43-12 49-29l28 8c-11 28-37 45-77 45C44 4 14-33 15-96c1-61 26-98 85-98zm52 81c6-60-76-77-97-28-3 7-6 17-6 28h103" id="av"/><path d="M114-163C36-179 61-72 57 0H25l-1-190h30c1 12-1 29 2 39 6-27 23-49 58-41v29" id="aw"/><g id="v"><use transform="matrix(0.07407407407407408,0,0,0.07407407407407408,0,0)" xlink:href="#at"/><use transform="matrix(0.07407407407407408,0,0,0.07407407407407408,19.185185185185187,0)" xlink:href="#au"/><use transform="matrix(0.07407407407407408,0,0,0.07407407407407408,32.51851851851852,0)" xlink:href="#av"/><use transform="matrix(0.07407407407407408,0,0,0.07407407407407408,47.33333333333334,0)" xlink:href="#aw"/></g><g id="w"><use transform="matrix(0.06790123456790124,0,0,0.06790123456790124,0,0)" xlink:href="#aj"/><use transform="matrix(0.06790123456790124,0,0,0.06790123456790124,15.41358024691358,0)" xlink:href="#ak"/><use transform="matrix(0.06790123456790124,0,0,0.06790123456790124,38.4320987654321,0)" xlink:href="#al"/></g><path d="M126-127c33 6 58 20 58 59 0 88-139 92-164 29-3-8-5-16-6-25l32-3c6 27 21 44 54 44 32 0 52-15 52-46 0-38-36-46-79-43v-28c39 1 72-4 72-42 0-27-17-43-46-43-28 0-47 15-49 41l-32-3c6-42 35-63 81-64 48-1 79 21 79 65 0 36-21 52-52 59" id="ax"/><g id="x"><use transform="matrix(0.06790123456790124,0,0,0.06790123456790124,0,0)" xlink:href="#al"/><use transform="matrix(0.06790123456790124,0,0,0.06790123456790124,16.296296296296298,0)" xlink:href="#ax"/></g><path d="M30-248c118-7 216 8 213 122C240-48 200 0 122 0H30v-248zM63-27c89 8 146-16 146-99s-60-101-146-95v194" id="ay"/><path d="M100-194c62-1 85 37 85 99 1 63-27 99-86 99S16-35 15-95c0-66 28-99 85-99zM99-20c44 1 53-31 53-75 0-43-8-75-51-75s-53 32-53 75 10 74 51 75" id="az"/><path d="M96-169c-40 0-48 33-48 73s9 75 48 75c24 0 41-14 43-38l32 2c-6 37-31 61-74 61-59 0-76-41-82-99-10-93 101-131 147-64 4 7 5 14 7 22l-32 3c-4-21-16-35-41-35" id="aA"/><path d="M143 0L79-87 56-68V0H24v-261h32v163l83-92h37l-77 82L181 0h-38" id="aB"/><g id="y"><use transform="matrix(0.08641975308641976,0,0,0.08641975308641976,0,0)" xlink:href="#ay"/><use transform="matrix(0.08641975308641976,0,0,0.08641975308641976,22.38271604938272,0)" xlink:href="#az"/><use transform="matrix(0.08641975308641976,0,0,0.08641975308641976,39.66666666666667,0)" xlink:href="#aA"/><use transform="matrix(0.08641975308641976,0,0,0.08641975308641976,55.22222222222223,0)" xlink:href="#aB"/><use transform="matrix(0.08641975308641976,0,0,0.08641975308641976,70.77777777777779,0)" xlink:href="#av"/><use transform="matrix(0.08641975308641976,0,0,0.08641975308641976,88.06172839506173,0)" xlink:href="#aw"/></g><path d="M212-179c-10-28-35-45-73-45-59 0-87 40-87 99 0 60 29 101 89 101 43 0 62-24 78-52l27 14C228-24 195 4 139 4 59 4 22-46 18-125c-6-104 99-153 187-111 19 9 31 26 39 46" id="aC"/><path d="M59-47c-2 24 18 29 38 22v24C64 9 27 4 27-40v-127H5v-23h24l9-43h21v43h35v23H59v120" id="aD"/><path d="M24-231v-30h32v30H24zM24 0v-190h32V0H24" id="aE"/><g id="z"><use transform="matrix(0.08641975308641976,0,0,0.08641975308641976,0,0)" xlink:href="#aC"/><use transform="matrix(0.08641975308641976,0,0,0.08641975308641976,22.38271604938272,0)" xlink:href="#az"/><use transform="matrix(0.08641975308641976,0,0,0.08641975308641976,39.66666666666667,0)" xlink:href="#as"/><use transform="matrix(0.08641975308641976,0,0,0.08641975308641976,56.95061728395062,0)" xlink:href="#aD"/><use transform="matrix(0.08641975308641976,0,0,0.08641975308641976,65.5925925925926,0)" xlink:href="#an"/><use transform="matrix(0.08641975308641976,0,0,0.08641975308641976,82.87654320987654,0)" xlink:href="#aE"/><use transform="matrix(0.08641975308641976,0,0,0.08641975308641976,89.70370370370371,0)" xlink:href="#as"/><use transform="matrix(0.08641975308641976,0,0,0.08641975308641976,106.98765432098766,0)" xlink:href="#av"/><use transform="matrix(0.08641975308641976,0,0,0.08641975308641976,124.2716049382716,0)" xlink:href="#aw"/></g><path d="M33 0v-248h34V0H33" id="aF"/><g id="A"><use transform="matrix(0.08641975308641976,0,0,0.08641975308641976,0,0)" xlink:href="#aF"/><use transform="matrix(0.08641975308641976,0,0,0.08641975308641976,8.641975308641976,0)" xlink:href="#as"/><use transform="matrix(0.08641975308641976,0,0,0.08641975308641976,25.925925925925927,0)" xlink:href="#aD"/><use transform="matrix(0.08641975308641976,0,0,0.08641975308641976,34.567901234567906,0)" xlink:href="#av"/><use transform="matrix(0.08641975308641976,0,0,0.08641975308641976,51.851851851851855,0)" xlink:href="#aw"/><use transform="matrix(0.08641975308641976,0,0,0.08641975308641976,62.13580246913581,0)" xlink:href="#as"/><use transform="matrix(0.08641975308641976,0,0,0.08641975308641976,79.41975308641976,0)" xlink:href="#av"/><use transform="matrix(0.08641975308641976,0,0,0.08641975308641976,96.70370370370371,0)" xlink:href="#aD"/></g></defs></g></svg>