<?xml version="1.0" encoding="UTF-8"?>
<svg id="Layer_2" data-name="Layer 2" xmlns="http://www.w3.org/2000/svg" xmlns:xlink="http://www.w3.org/1999/xlink" viewBox="0 0 664.41 663.62">
  <defs>
    <style>
      .cls-1 {
        fill: url(#linear-gradient);
        stroke: #08010C;
        stroke-miterlimit: 10;
        stroke-width: 10px;
      }
    </style>
    <linearGradient id="linear-gradient" x1=".38" y1="331.81" x2="664.04" y2="331.81" gradientUnits="userSpaceOnUse">
      <stop offset="0" stop-color="#290373"/>
      <stop offset=".87" stop-color="#e0d6ee"/>
    </linearGradient>
  </defs>
  <rect x="-10" y="-10" width="110%" height="110%" fill="#08010C"/>
  <g id="Path_w_Color" data-name="Path w Color">
    <path id="Inner" fill="#FFFFFF" d="M329.57,110.56c15.54,1.47,59.05,7.74,91.91,42.72,16.88,17.97,24.61,36.77,28.36,46.12,4.11,10.26,14.85,40.12,10.45,78.99-1.14,10.09-4.59,38.12-20.94,63.83-37.42,58.85-115.58,63.38-125.43,63.8-.38,19.79.68,36.36,1.86,48.54,1.94,20.08,4.73,47.06,16.17,79.49,3.73,10.56,8.59,24.14,18.04,40.51,8.58,14.86,25.11,42.88,58.21,64.34,23.55,15.27,46.69,21.68,63.32,24.51,27.59-.38,55.17-.77,82.76-1.15-11.04-.1-26.44-1.77-44.46-8.89-1.24-.49-2.11-.85-2.7-1.1-7.85-3.3-25.58-11.6-43.94-27.67-33.79-29.57-47.63-64.82-55.25-84.87-10.92-28.76-13.92-52.77-16.75-75.47-2.96-23.72-3.45-43.94-3.23-58.89,13.4-.02,34.97-1.72,59.06-11.57,10.72-4.38,38.82-16.27,60.43-44.26,38.86-50.33,25.55-112.35,22.81-125.11-2.74-12.75-10.88-48.48-40.17-76.09-10.22-9.63-20.88-16.27-27.4-19.91-22.44-12.55-42.76-15.91-51.47-16.99-1.78-.22-3.58-.39-3.58-.39s-3.63-.35-7.43-.51c-4.05-.17-32.12-.23-70.63.02Z"/>
    <path id="Outer" class="cls-1" d="M93.66,110.73c101.69.33,204.8-.48,306.54-.18,2.31,0,6.17.31,11.01.9,8.71,1.07,29.02,4.44,51.47,16.99,6.52,3.65,17.19,10.28,27.4,19.91,29.29,27.61,37.43,63.33,40.17,76.09,2.74,12.75,16.05,74.78-22.81,125.11-21.61,27.98-49.71,39.87-60.43,44.26-24.09,9.85-45.66,11.56-59.06,11.57-.22,14.95.27,35.17,3.23,58.89,2.84,22.7,5.84,46.71,16.75,75.47,7.61,20.05,21.45,55.3,55.25,84.87,22.08,19.32,42.29,27.14,46.64,28.77,17.8,6.67,33.64,8.48,44.46,8.89,36.58-36.61,73.17-73.22,109.75-109.83-.06-147.18-.11-294.35-.17-441.53-36.48-36.71-72.96-73.42-109.45-110.13-147.77-.13-295.53-.27-443.3-.4C74.21,37.33,37.29,74.29.38,111.24c.11,183.94.23,367.89.34,551.83,55.83.06,111.66.11,167.49.17.14-82.76.23-165.52.26-248.28.03-82.24,0-164.47-.09-246.69-24.87-.74-50.11.33-74.98-.41l.27-57.12Z"/>
  </g>
</svg>